<svg xmlns="http://www.w3.org/2000/svg" id="Layer_2" viewBox="0 0 500 447.39"><defs><style>.cls-1{fill:#fff}.cls-2{fill:#09123a}.cls-3{fill:#fff}</style></defs><g id="Layer_1-2"><path d="M249.24 50.81c.17.87.39 1.64.69 2.42.28.85.59 1.66.95 2.44.69 1.64 1.56 3.1 2.41 4.48.86 1.35 1.75 2.51 2.54 3.45.77.91 1.52 1.54 2.07 1.83-.1-2.18.39-4.25 1.08-6.25.65-2.01 1.66-4.02 2.61-6.03.94-2.04 1.95-4.13 2.59-6.35.32-1.11.63-2.25.74-3.46.1-1.21.08-2.48-.08-3.8-.12-1.36-2.87-4.65-2.6-9.82.36-7-4.56-3.39-6.06 3.34-1.83 8.15-7.96 11.04-6.94 17.75m15.42-.09c.95-1.09 1.76-1.87 2.58-2.54.76-.62 1.53-1.16 2.28-1.63-.36-.44-.73-.86-1.13-1.23-.9-.89-1.71-1.52-2.31-1.81-.01.76-.07 1.47-.2 2.17-.45 2.67-2.23 5.56-3.85 8.49-.06.11-.13.22-.2.33.92-1.42 1.84-2.68 2.82-3.77h.02m10.39 22.77c-1.22 2-2.42 3.66-3.65 5.1-.57.63-1.2 1.32-1.89 1.99 0 .66-.08 1.44-.23 2.35-.24 1.44-.6 3.01-1.08 4.5a41 41 0 0 1-1.94 5.22q-.63 1.53-1.65 3.3c.24 1.48.51 2.9.87 4.16.34 1.46.89 2.82 1.27 3.8.41 1 .86 1.77 1.26 2.2.31-.92.72-1.79 1.23-2.64.51-.84.99-1.7 1.6-2.52 1.23-1.64 2.62-3.23 4.02-4.85.72-.81 1.42-1.64 2.15-2.5.65-.85 1.31-1.72 1.92-2.64.62-.9 1.18-1.87 1.67-2.89.47-1.01.86-2.07 1.16-3.21.29-1.12.5-2.31.51-3.57-.18-1.8-.5-3.62-1.02-5.31-.52-1.68-1.11-3.31-1.82-4.7-.56-1.14-1.14-2.15-1.7-3-.05.07-.06.14-.1.21-.62 1.44-1.44 3.04-2.6 4.99" class="cls-1"/><path d="M285.9 101.62c-.03-.49-.08-.96-.12-1.42-.11-.95-.23-1.89-.41-2.78-.17-.89-.41-1.7-.62-2.5-.46-1.57-.99-2.96-1.57-4.02-.57-1.08-1.1-1.86-1.59-2.31-.22.66-.48 1.29-.79 1.87-1.18 2.26-3.52 4.5-5.81 6.75-1.14 1.12-2.31 2.26-3.34 3.4-1.04 1.13-1.89 2.33-2.62 3.5-.49.8-.84 1.63-1.23 2.4-.39.73-.71 1.45-.97 2.15-.65 1.52-1.16 2.97-1.59 4.33-.43 1.34-.78 2.56-1.01 3.6-.26 1.05-.42 1.87-.48 2.57-.04.65-.02 1.25.12 1.61 1.02 0 2.65-.29 4.37-.68 1.72-.44 3.68-.95 5.63-1.68.97-.36 1.96-.77 2.92-1.27.99-.47 1.93-1.05 2.83-1.71 1.84-1.32 3.49-3.04 4.71-5.36.56-1.16 1.06-2.45 1.41-3.89.12-.99.16-2.01.18-3.03 0-.51 0-1.03-.02-1.52" class="cls-1"/><path d="M282.9 114.07c-.43.62-.89 1.17-1.42 1.64-1.97 1.85-5.04 2.97-8.03 3.72-3.01.75-6.08 1.12-8.12 1.33-.32.02-.64.05-.95.05-.16 0-.29-.02-.43-.03-.12-.02-.2-.1-.29-.14-.34-.18-.62-.39-.77-.59-1.28-1.84-3.26-2.52-3.45-2.61-.16 1.25-.45 2.35-.82 3.58-.16.58-.41 1.23-.58 1.81-.19.63-.35 1.32-.41 2.05-.11.76-.11 1.52 0 2.35.05.86.26 1.63.53 2.48.27.88.71 1.59 1.2 2.42.53.79 1.18 1.45 1.95 2.18.47.35.99.7 1.57 1.03.27.17.58.35.89.49.32.11.63.22.97.34.65.18 1.36.37 2.13.42.76.04 1.56.11 2.38-.03 1.74-.21 3.63-.78 5.53-1.99 2.59-1.81 4.21-3.91 5.49-6.06 1.29-2.14 2.03-4.26 2.51-6.2.45-1.93.62-3.67.6-5.09-.02-1.41-.2-2.49-.47-3.15" class="cls-1"/><path d="M261.17 136.04c-.1-.07-.2-.15-.3-.21-.68-.54-1.3-1.07-1.82-1.72-.51-.68-.96-1.41-1.3-2.16-.32-.8-.54-1.62-.72-2.41-.13-.85-.2-1.7-.2-2.49.03-.79.14-1.61.29-2.32.16-.72.39-1.42.62-2.01.25-.62.49-1.25.68-1.81.23-.6.41-1.13.56-1.68.41-1.46.77-2.9.98-4.3.23-1.53.4-3.08.5-4.56.02-.74.1-1.48.12-2.19.06-.71.09-1.4.06-2.06.06-1.41.04-2.78-.05-3.89-.03-1.15-.19-2.06-.4-2.61-.56.85-1.21 1.6-1.9 2.28-.65.68-1.36 1.3-2.13 1.88-.38.3-.78.58-1.18.87l-1.17.83c-.8.57-1.63 1.16-2.45 1.73-1.64 1.23-3.25 2.6-4.65 4.32-1.35 1.73-2.56 3.77-3.09 6.41-.14.66-.24 1.34-.27 2.07-.06.72-.06 1.48.03 2.31.31 1.94 1.04 4 2.04 5.99.26.51.57.99.89 1.48.3.52.64 1.04 1.1 1.58.41.53.87 1.03 1.3 1.51.46.47.95.88 1.42 1.3.95.84 2.01 1.43 2.99 1.99 1.02.49 2.02.89 2.99 1.16.97.18 1.86.38 2.72.39.84.01 1.58 0 2.22-.04.55-.13 1.01-.22 1.4-.34s.71-.23.97-.35c-.83-.31-1.59-.65-2.25-.97" class="cls-1"/><path d="M267.87 79.86c-1.48 1.57-3.1 2.68-4.81 3.58-1.75.89-3.59 1.55-5.43 2.23-1.88.66-3.82 1.33-5.61 2.25-1.82.93-3.62 2.06-5.15 3.74-.75.85-1.54 1.74-2.17 2.9-.74 1.74-1.38 3.56-1.76 5.53-.17.98-.37 1.88-.45 2.89-.09 1.01-.13 1.99-.14 2.91-.01 1.85.22 3.52.56 4.86.29 1.34.73 2.36 1.11 2.93.28-.7.6-1.35.95-1.95 1.48-2.25 3.91-4.03 6.6-5.58 2.55-1.55 5.26-2.88 7.12-4.8 1.33-1.33 2.38-2.77 3.41-4.29 1.01-1.64 1.98-3.38 2.71-5.11a42 42 0 0 0 1.85-5.04c.51-1.59.83-3.06 1.03-4.27.22-1.2.27-2.19.18-2.77" class="cls-1"/><path d="M273.15 63.96c-1.81.68-3.65 1.14-5.57 1.55-1.93.43-3.81.88-5.72 1.53-1.9.63-3.72 1.52-5.46 2.86-.88.66-1.69 1.42-2.49 2.36-.98 1.46-1.86 3.04-2.54 4.67-.71 1.6-1.31 3.21-1.71 4.75-.41 1.53-.71 2.9-.82 4.1-.12 1.2-.12 2.16.04 2.77.49-.43.99-.83 1.52-1.17 1.99-1.3 4.86-1.95 7.7-2.73 2.82-.76 5.74-1.59 7.96-3.28 1.57-1.13 2.89-2.5 4.14-3.9 1.33-1.56 2.46-3.21 3.48-4.85.98-1.66 1.84-3.28 2.51-4.81.69-1.52 1.23-2.9 1.56-4.09.34-1.16.55-2.07.53-2.66-1.64 1.3-3.31 2.25-5.12 2.9" class="cls-1"/><path d="M286.13 46.27c-.98.31-1.95.54-2.9.7-.98.16-1.95.23-2.88.26-1.87.03-3.92.05-5.84.43-.98.19-2 .43-2.98.78-.96.36-1.93.79-2.9 1.36-.97.56-1.88 1.23-2.78 2.07-1.22 1.33-2.25 2.82-3.16 4.32-.94 1.49-1.66 3.03-2.27 4.45-.62 1.43-1.02 2.78-1.32 3.91-.28 1.14-.41 2.06-.36 2.68.54-.36 1.09-.66 1.65-.92 2.13-.98 4.93-1.3 7.8-1.7 2.84-.44 5.75-.9 8.13-2.29 1.66-.92 3.14-2.06 4.5-3.23.75-.63 1.43-1.32 2.11-1.97.64-.62 1.25-1.29 1.83-1.94.59-.61 1.13-1.23 1.62-1.85.71-.87 1.61-1.98 2.08-2.79 1.12-1.71 1.83-3.25 2.36-4.56.49-1.3.76-2.33.76-2.95-1.71 1.59-3.59 2.6-5.46 3.25" class="cls-1"/><path d="M302.43 22.13c-1.41 1.83-3.02 3.09-4.67 4.08-1.73.96-3.5 1.61-5.28 2.19-1.8.57-3.63 1.05-5.4 1.67-1.8.59-3.54 1.35-5.21 2.41-.83.52-1.63 1.13-2.43 1.85-1.02 1.14-1.96 2.37-2.8 3.56-.83 1.18-1.6 2.32-2.05 3.14l-.11.18-.17.25c-.12.17-.23.34-.35.51-.23.33-.43.66-.63.98-.39.63-.76 1.23-1.01 1.81-.51 1.11-.82 2.04-.92 2.67.6-.3 1.2-.54 1.8-.7 2.23-.72 5.18-.45 7.89-.3 2.86.07 5.85-.37 8.45-1.91.86-.54 1.7-1.15 2.5-1.82.77-.66 1.52-1.39 2.22-2.15a30 30 0 0 0 3.92-5.34c.53-.95 1.04-1.87 1.48-2.78.42-.93.79-1.82 1.12-2.7.69-1.71 1.1-3.34 1.38-4.64.27-1.31.38-2.34.27-2.95" class="cls-1"/><path d="M310.19 0c-1.1 2.01-2.53 3.49-4.01 4.72s-3.16 2.13-4.81 2.98c-1.66.86-3.32 1.63-5 2.51-1.66.88-3.19 1.92-4.7 3.27-.74.67-1.46 1.42-2.13 2.29-1.69 2.71-3.03 5.74-3.97 8.38-.96 2.61-1.47 4.89-1.41 6.01.5-.31 1-.58 1.53-.81 1.96-.89 4.65-1.26 7.33-1.94 2.71-.65 5.5-1.58 7.68-3.52 1.54-1.3 2.8-2.92 3.96-4.6 1.24-1.84 2.22-3.86 3.06-5.82.79-1.98 1.38-3.97 1.84-5.74.77-3.64.98-6.54.64-7.73m-97.22 156.22c.49-.67 1.13-1.51 1.89-2.32.74-.75 1.54-1.57 2.44-2.29 1.29-1.04 2.61-1.94 3.95-2.68-.17-.31-.34-.62-.52-.91-1.01-1.6-2.09-3.03-3.17-4.24-2.16-2.4-4.19-4.03-5.4-4.36-.13-1.15-.31-2.28-.56-3.37-.24-1-.52-1.97-.86-2.88-.33-.93-.69-1.82-1.08-2.68-.8-1.7-1.68-3.22-2.57-4.56-.94-1.32-1.84-2.45-2.66-3.31-.82-.84-1.57-1.42-2.12-1.66 0-.18.01-.34.01-.53.03-.97 0-1.93-.07-2.85-.21-1.99-.55-3.91-1.06-5.67-.57-1.74-1.1-3.38-1.79-4.79-.71-1.41-1.31-2.65-2-3.61-.63-.94-1.29-1.63-1.78-1.98.28-1.09.5-2.17.62-3.22.06-.47.09-.97.1-1.44.05-.47.09-.93.12-1.4.03-.93 0-1.82-.07-2.71-.1-1.74-.27-3.37-.64-4.82-.24-1.46-.61-2.75-1.03-3.81-.41-1.05-.74-1.84-1.15-2.29.54-.92 1.02-1.85 1.4-2.77.84-1.76 1.4-3.51 1.71-5.22.44-1.64.71-3.24.78-4.73.15-1.46.23-2.74.13-3.86-.03-.55-.11-1.05-.2-1.5-.07-.41-.14-.75-.27-1.02.13-.1.27-.2.39-.3.68-.57 1.28-1.16 1.82-1.76.55-.69 1.17-1.29 1.68-1.92.53-.63.99-1.29 1.39-1.96.46-.59.89-1.2 1.24-1.81.38-.61.64-1.29.98-1.81.33-.57.62-1.12.84-1.67.23-.54.41-1.1.61-1.53.36-.91.56-1.73.56-2.31.13-.04.29-.06.43-.09.75-.23 1.59-.32 2.27-.54 1.51-.54 2.99-.93 4.2-1.62.65-.27 1.29-.54 1.85-.87.3-.18.58-.34.86-.52.27-.14.55-.28.82-.43.55-.31 1.03-.66 1.48-1.02.47-.31.9-.59 1.29-.9.77-.59 1.33-1.25 1.62-1.68.92.39 1.8.72 2.64.9 1.57.58 3.03.76 4.45 1.01.35.05.7.08 1.05.1.31.04.62.07.91.11.3.03.6.03.9.04.3.04.6.05.91.07 1.18-.01 2.35.07 3.31-.08.98-.05 1.78-.22 2.31-.49-2.5-2.74-3.9-6.6-6.03-10.58-2.17-3.95-4.97-7.87-9.74-9.79-1.19-.41-2.47-.7-3.9-.84-1.02-.01-2.03.2-3.07.4-1.01.22-2.02.43-2.99.76-.96.38-1.88.77-2.77 1.19-.89.43-1.73.87-2.48 1.41-1.49 1.06-2.8 2.04-3.7 3.07-.91 1.05-1.52 1.95-1.79 2.61.73-.04 1.46-.03 2.15.06.67.09 1.34.27 2.02.49.71.25 1.42.59 2.13.96 1.4.73 2.79 1.64 4.14 2.57 2.78 2.01 5.26 4 7.62 5.19.58.25 1.14.49 1.7.74-3.33-.96-6.53-3.41-10.28-5.51-1.89-1.04-4.01-2.18-6.18-2.7-2.19-.58-4.63-.88-7.07-.28-.61.14-1.25.31-1.88.53-.64.21-1.28.5-1.87.86-3.37 2.42-6.1 5.96-7.61 9.23-.73 1.66-1.37 3.15-1.61 4.47-.26 1.33-.33 2.39-.24 3.1.61-.41 1.23-.74 1.85-1 .63-.25 1.28-.44 1.96-.59.75-.13 1.52-.22 2.3-.26 1.58-.11 3.23-.06 4.85.02 1.55.04 3.32.27 4.83.33 1.56.11 2.9.03 4.26-.08q.96-.105 1.83-.3c-.77.25-1.58.41-2.45.5-.94.11-1.83.23-2.84.26-1 .05-2.02.07-3.11.05-1.05.02-2.09.06-3.18.11-4.39.15-9.01.84-12.86 4.02-.9.8-1.78 1.73-2.6 2.84-.24.44-.48.88-.69 1.33-.2.45-.37.92-.53 1.39-.34.92-.62 1.85-.88 2.8-.56 1.87-.73 3.73-.8 5.43-.06 1.68-.07 3.23.16 4.47.24 1.26.53 2.22.87 2.81.43-.55.88-1.06 1.37-1.52.48-.43 1.02-.84 1.63-1.21.63-.38 1.31-.74 2.02-1.08 1.41-.67 2.96-1.27 4.49-1.85 3-1.23 6.27-2.27 8.42-3.9.38-.29.71-.58 1.05-.87.21-.16.41-.32.59-.47-2.6 2.8-6.48 4.37-10.34 6.29-4.07 1.93-7.95 4.14-10.67 8.18-.64 1.01-1.15 2.17-1.55 3.47-.18.94-.33 1.92-.4 2.91-.02.96 0 1.94.02 2.88.06.96.13 1.9.25 2.8.16.89.34 1.76.54 2.57.76 3.27 2.11 5.66 3.04 6.6.26-.66.55-1.29.91-1.87 1.34-2.23 4-4.36 6.59-6.44 2.52-2.09 5.36-4.13 6.86-6.41.42-.58.8-1.13 1.14-1.71-.89 1.71-1.95 3.25-3.33 4.7-1.47 1.53-3.01 2.99-4.64 4.52-1.63 1.52-3.28 3.13-4.63 4.91-1.35 1.79-2.62 3.83-3.22 6.1-.33 1.15-.55 2.35-.61 3.68.13 1.85.57 3.69 1.06 5.45.52 1.76 1.28 3.35 1.99 4.78 1.47 2.87 3.21 4.84 4.31 5.51.13-.7.3-1.36.53-2 .9-2.47 2.92-5.08 5-7.77 1.05-1.33 2.07-2.68 2.95-4.03.89-1.36 1.67-2.72 2.14-4.09.21-.66.4-1.3.55-1.94-.29 1.94-.99 3.75-1.95 5.53-.95 1.88-2.16 3.72-3.4 5.6-1.26 1.9-2.43 3.8-3.44 5.86a26 26 0 0 0-1.29 3.15 18 18 0 0 0-.67 3.37c-.11 1.17-.14 2.4.04 3.64.49 1.73 1.19 3.44 1.97 5.02.81 1.55 1.75 2.99 2.7 4.23 1.88 2.49 3.83 4.14 5.02 4.62.03-.69.1-1.37.24-2.03.55-2.57 2.13-5.46 3.75-8.48 1.61-3 3.15-6.04 3.61-8.98.11-.71.15-1.42.18-2.12.3 8.42-7.14 15.92-6.86 25.14.05 1.15.17 2.36.52 3.52.71 1.64 1.58 3.21 2.56 4.63.99 1.42 2.07 2.7 3.14 3.8 2.18 2.15 4.26 3.59 5.51 3.87-.06-.67-.06-1.34 0-2.02.48-5.21 5.06-12.36 5.14-18.31 0-.74-.06-1.46-.12-2.17 1.29 7.22-3.32 14.43-3.85 22.04.89-.87 1.86-1.63 2.89-2.28.33-.93.92-2.02 1.76-3.26m143.88-71.94c-.12-1.91-.29-3.75-.7-5.41-.45-1.67-.98-3.14-1.51-4.3-.26-.58-.53-1.09-.78-1.52-.29-.43-.58-.76-.83-.99-.23.69-.48 1.34-.88 1.95-1.42 2.33-3.95 4.47-6.55 6.52-2.73 2.07-5.36 4.06-6.98 6.36-.42.56-.78 1.15-1.15 1.73.42-.84.91-1.63 1.48-2.38.55-.81 1.19-1.58 1.9-2.34 1.39-1.51 3.15-2.96 4.71-4.47 1.59-1.52 3.21-3.13 4.61-4.97 1.43-1.86 2.39-3.92 3.02-6.41.33-1.22.42-2.53.33-3.94-.33-2-.84-4.03-1.75-5.88-.43-.92-.87-1.83-1.34-2.68-.43-.87-1.06-1.62-1.6-2.34-2.11-2.94-4.55-4.67-5.85-5.12.1.77.15 1.52.1 2.23-.08 2.75-1.64 5.96-3.18 8.9-.73 1.47-1.65 2.98-2.37 4.38-.77 1.43-1.31 2.75-1.75 4.07-.21.67-.37 1.3-.52 1.93.12-.87.33-1.73.61-2.61.24-.91.58-1.85.97-2.8.39-.96.85-1.94 1.31-2.94.42-.99.86-2 1.3-3.02.43-1.03.86-2.1 1.23-3.23.41-1.12.62-2.2.84-3.37.2-1.17.29-2.37.29-3.61s-.24-2.43-.59-3.71c-.36-1.25-.8-2.59-1.64-3.77-1.33-1.62-2.83-3.2-4.55-4.34-.86-.59-1.7-1.18-2.55-1.65-.88-.44-1.75-.84-2.59-1.17-1.65-.74-3.26-1.06-4.58-1.22-1.32-.18-2.36-.21-3.06.02.49.54.9 1.19 1.24 1.84.61 1.24 1.05 2.71 1.34 4.29s.39 3.36.47 5.04c.03.84.06 1.68.1 2.51 0 .84.02 1.68.03 2.49.04 1.63.19 3.02.41 4.38.33 1.85.87 3.34 1.32 4.85.64 1.52 1.16 3.02 1.91 4.27.37.62.65 1.31 1.04 1.89.35.6.82 1.1 1.13 1.69.69 1.12 1.5 2.05 2.21 2.8.64.79 1.27 1.35 1.78 1.63-.04.15-.08.31-.1.45-.16.86-.24 1.66-.38 2.51-.28 1.83-.12 3.48-.13 5.17.05 1.67.39 3.2.57 4.68.26 1.46.66 2.75 1.05 3.82.34 1.07.73 1.9 1.11 2.36-.56.95-1.01 1.91-1.39 2.88-.39.87-.76 1.69-1.02 2.53-.29.85-.45 1.66-.71 2.49-.47 1.64-.59 3.26-.83 4.75-.21 1.49-.17 2.88-.17 4.01.04 1.14.2 2.06.45 2.61-.78.76-1.5 1.55-2.2 2.34-.63.75-1.18 1.5-1.67 2.28-.5.77-1.01 1.55-1.43 2.33-.44.78-.79 1.58-1.13 2.36-.36.76-.68 1.52-.93 2.26-.28.75-.49 1.46-.67 2.16-.2.66-.36 1.3-.47 1.88-.22 1.16-.27 2.13-.15 2.74-.14.09-.3.18-.43.28-.79.49-1.55 1.03-2.26 1.61-.76.64-1.44 1.31-2.13 1.98-.69.68-1.3 1.4-1.87 2.12-1.12 1.44-2.15 2.88-2.93 4.31-1.55 2.8-2.46 5.3-2.41 6.59-1.04.45-2.03.95-2.96 1.52-3.4 2.09-6.15 4.88-8.09 7.49-1.96 2.59-3.12 5.01-3.25 6.29-1.08.3-2.14.69-3.13 1.16-7.21 3.33-12.22 9.85-12.79 12.34-1.1.2-2.18.46-3.21.75-3.77 1.24-7.01 3.2-9.43 5.2-2.41 1.95-4.04 3.86-4.46 5.04-1.05-.05-2.09-.05-3.06.04-1.77.09-6.18.57-9.13 1.59-.08-.14-.13-.28-.22-.42-.41-.75-.87-1.49-1.36-2.15-2.11-2.98-4.91-5.45-7.5-7.19-2.57-1.74-4.95-2.8-6.19-2.81-.36-1.1-.8-2.15-1.3-3.16-.24-.51-.53-1-.82-1.51-.45-.06-.89-.13-1.3-.23-2.07 2.63-6.13 6.03-10.29 7.9l-.74.29c-.23.09-.47.19-.72.27-.22 2.43-.18 4.88.47 7.27.31 1.1.71 2.22 1.31 3.32 2.11 2.84 4.93 5.25 7.63 6.86 2.66 1.62 5.21 2.44 6.5 2.41-.26-.66-.44-1.33-.59-2-1.05-5.24 1.79-13.34.52-19.09-.17-.7-.37-1.39-.58-2.04 1.62 3.82 1.37 8.12 1.19 12.53-.12 2.27-.21 4.57.02 6.85.18 2.3.71 4.56 1.83 6.73.63 1.08 1.28 2.14 2.28 3.16.86.65 1.65 1.25 2.64 1.82.5.27 1.03.54 1.54.8l.78.37c.28.11.63.23.95.35.29.11.67.22 1.06.34l1.17.33c.77.22 1.52.25 2.28.38.35.06.72.09 1.09.14.36.01.74-.06 1.1-.07.71-.07 1.42-.13 2.1-.21.69-.16 1.35-.32 2-.47.6-.17 1.09-.34 1.54-.53.78-.39 1.51-.78 2.13-1.17 1.22-.77 1.91-1.54 2.35-2.13-.73-.13-1.43-.31-2.07-.55-1.28-.48-2.64-1.35-3.84-2.36-.65-.54-1.27-1.15-1.87-1.76-.29-.31-.55-.62-.81-.95-.25-.35-.49-.71-.7-1.05-.44-.73-.8-1.41-1.09-2.23-.26-.76-.51-1.46-.61-2.21-.06-.34-.11-.69-.16-1.05-.08-.33-.12-.63-.22-.98-.19-.71-.38-1.34-.6-1.91-.23-.56-.51-1.15-.79-1.7.47.7.84 1.48 1.11 2.19.18.4.34.86.47 1.3.12.4.25.83.29 1.26.14.89.48 1.74.89 2.73.44.85 1.02 1.8 1.75 2.61 3.05 3.23 7.41 5.83 12.12 6.18 1.2.08 2.38.02 3.66-.2 7.05-2.3 12.44-8.29 13.18-10.8-.66.01-1.33-.03-1.98-.13-4.99-.8-11.59-6.08-17.12-6.81-.74-.09-1.46-.11-2.16-.15 3.95-.26 7.85 1.35 11.87 2.99 2.04.86 4.11 1.7 6.23 2.28 2.12.6 4.29.9 6.52.69 1.12-.09 2.22-.32 3.37-.75 6.19-3.21 10.82-9.66 11.21-12.28-.66.09-1.3.14-1.94.11-5.04-.2-12.18-4.58-17.92-4.29-.71.03-1.39.1-2.07.21 1.95-.46 3.89-.47 5.85-.23 2.08.27 4.19.8 6.28 1.34 4.27 1.12 8.6 2.29 12.98 1.35 1.08-.24 2.17-.59 3.25-1.12 5.76-3.89 9.65-10.9 9.78-13.54-.64.17-1.28.29-1.93.34-2.5.22-5.65-.56-8.89-1.29-3.23-.69-6.53-1.34-9.39-.86-.69.13-1.39.31-2.05.49 3.84-1.47 7.98-.95 12.22-.36 2.2.33 4.37.61 6.56.67 2.19.05 4.39-.13 6.49-.9 1.06-.38 2.1-.86 3.13-1.52 1.32-1.17 2.49-2.51 3.54-3.91 1.04-1.4 1.9-2.89 2.6-4.29 1.43-2.79 2.06-5.37 1.99-6.68-.63.26-1.24.48-1.89.63-2.47.56-5.69.26-9-.02-3.29-.27-6.6-.47-9.38.33-.65.21-1.29.45-1.9.72 1.75-.94 3.63-1.41 5.59-1.63 2.05-.26 4.2-.26 6.4-.25 2.21.03 4.39 0 6.6-.26 1.08-.14 2.17-.33 3.24-.63 1.04-.31 2.08-.72 3.09-1.26.99-.54 1.99-1.19 2.89-2.04 1.13-1.41 2.14-2.95 2.98-4.53.8-1.62 1.45-3.25 1.95-4.78.91-3.13 1.17-5.8.84-7.11-.55.41-1.14.73-1.77 1.01-4.71 2.18-12.91 1.17-18.07 3.58-.63.31-1.24.64-1.82.99 1.59-1.19 3.43-1.93 5.29-2.49 1.98-.59 4.11-.95 6.29-1.33 4.25-.81 8.78-1.66 12.33-4.76.9-.76 1.75-1.63 2.47-2.73 1.75-3.32 2.62-7.27 2.83-10.62.07-1.71.01-3.24-.14-4.5-.18-1.27-.52-2.27-.83-2.87-.43.56-.89 1.09-1.39 1.55-1.99 1.75-5.11 2.95-8.16 4.1-1.57.58-3.16 1.13-4.61 1.75-1.45.64-2.72 1.35-3.89 2.2-.58.41-1.08.87-1.56 1.32.6-.69 1.29-1.3 2.03-1.85.83-.6 1.63-1.15 2.54-1.66 1.77-1.02 3.84-1.86 5.76-2.81 1.95-.95 4.01-1.95 5.89-3.25 1.77-1.31 3.5-2.92 4.81-4.98.6-1.01 1.12-2.13 1.53-3.39.36-1.86.58-3.79.41-5.72" class="cls-1"/><path d="M316.88 23.84c.16 2.06 1.82 4.99 4.14 8.85 2.33 3.88 3.07 8.85 3.24 11.78s.91 8.77 2.12 10.44c-2.95.21-11.25-3.57-15.3-8.38-4.07-4.81.58-10.65 1.83-13.67 1.24-3.01 1.06-11.6 3.98-9.02m-90.49-2.16c2.71 1.41 4.48 4.09 7.39 11.73 1.07 2.81 2.76 6.63 4.47 8.18 2.66-2.52-.38-12.52.73-16.18 1.11-3.67.91-9.12-.18-10.48-1.13-1.37-2.63 1.78-4.46 3.25-1.82 1.47-7.34 1.94-7.95 3.5m193.49 17.31c-27.92 0-47.53.86-58.76 2.54-1 .17-1.48.76-1.48 1.77 0 .17.09.59.25 1.28l6.37 18.75c.17 1.01.73 1.52 1.7 1.52.68 0 1.16-.08 1.47-.25 15.2-4.73 29.89-7.1 44.1-7.1s21.07 7.18 21.07 21.54c0 7.96-1.14 17.09-3.43 27.39-2.46 11.16-5.46 19.82-9.05 25.99-3.6 6.16-7.69 9.24-12.25 9.24-1.64 0-3.12-.34-4.42-1.01-.16-.18-.56-.25-1.23-.25-.98 0-1.7.66-2.2 2.02l-3.92 12.66c-.32 1.02-.48 1.88-.48 2.55 0 2.52 5.23 3.8 15.67 3.8q17.64 0 28.17-14.19c6.04-8.12 11.04-19.28 14.94-33.46 3.77-13.35 5.64-25.62 5.64-36.76 0-25.35-14.04-38.02-42.15-38.02" class="cls-1"/><path d="M391.97 187.4V78.79c0-1.85-1.14-2.8-3.43-2.8l-21.08 4.06c-1.29.17-1.94 1.53-1.94 4.06v97.61c10.5.52 18.97 3 25.42 7.41.69-.33 1.02-.9 1.02-1.73M157.2 147.28c1.12-.87 3.92-2.5 7.41-3.33V70.93c0-11.49-2.95-19.69-8.82-24.59-5.89-4.89-15.7-7.35-29.39-7.35-19.27 0-34.71.92-46.3 2.78-.98.18-1.47.76-1.47 1.78 0 .16.09.5.24 1.02l6.38 19.25c.32 1.01 1.06 1.52 2.2 1.52 3.26 0 9.15-1.26 17.64-3.8s14.86-3.81 19.09-3.81c9.47 0 14.2 4.66 14.2 13.96v80.59c3.03-2.45 10.78-7.48 18.81-5" class="cls-1"/><path d="M9.34 55.04c-2.78 0-4.16-1.07-4.16-3.21s1.38-3.23 4.16-3.23h28.91c1.58 0 2.82.58 3.76 1.74.95 1.18 1.31 2.76 1.12 4.7zm43.8 32.39c1.11-2.35 1.67-4.53 1.67-6.55 0-3.11-1.14-5.81-3.42-8.13-2.26-2.31-4.93-3.48-7.97-3.48H8.87c-2.55 0-3.81-1.09-3.81-3.33s1.25-3.42 3.81-3.42h32.41c4.28 0 7.95 1.59 10.98 4.78 3.07 3.2 4.58 7.05 4.58 11.55 0 3.57-.99 7.19-3.01 10.91-.99-.47-1.21-1.25-.7-2.33" class="cls-2"/><path d="M19.82 103.75c-2.38-1.73-3.7-3.93-3.94-6.62-.19-1.76.17-3.24 1.12-4.45.94-1.2 2.15-1.8 3.64-1.8 2.15 0 3.96.97 5.4 2.92 1.48 1.95 2.06 4.17 1.79 6.66 2.86.07 5.59-.43 8.19-1.49 3.31-1.41 4.97-3.43 4.97-6.07 0-2.82-2.19-4.98-6.52-6.46-3.13-1.09-6.37-1.62-9.74-1.62-4.74 0-8.59.88-11.54 2.68-2.96 1.78-4.41 4.02-4.41 6.71 0 2.14.6 3.92 1.83 5.33.52.62.78 1.28.78 2.02 0 1.02-.37 1.62-1.07 1.83-2.85-2.35-4.29-5.91-4.29-10.71s2.01-8.92 6.04-11.58c3.37-2.3 7.62-3.44 12.74-3.44s9.42 1.17 12.84 3.52c4.05 2.78 6.04 6.65 6.04 11.72 0 4.17-1.48 7.5-4.48 9.99-2.78 2.28-6.22 3.44-10.31 3.44-3.71 0-6.74-.86-9.1-2.56m5.44-8.65c-1.06-1.34-2.4-2.05-4.03-2.1-.97-.07-1.74.23-2.34.94-.57.71-.8 1.59-.68 2.58.33 2.28 3.17 3.56 8.47 3.72.13-2.07-.35-3.8-1.41-5.14m-.72 42.26c-5.98 0-11.16-.94-15.58-2.81-5.98-2.63-8.95-6.6-8.95-11.92 0-3.41 1.14-6.15 3.43-8.17 2.25-2.02 5.28-3.03 9.03-3.03 4.82 0 8.5 1.96 11.1 5.83 2.21 3.37 3.33 7.69 3.33 12.93 3.17-.14 5.99-.67 8.45-1.61 3.64-1.34 5.45-3.34 5.45-5.96s-1.71-4.35-5.16-5.56c-2.4-.87-5.08-1.3-8.06-1.3.77-2.9 3.04-4.34 6.8-4.34 2.2 0 4.24 1 6.13 3.03 2.14 2.35 3.21 5.29 3.21 8.76s-1.24 6.4-3.7 8.89c-2.97 3.04-7.35 4.74-13.03 5.16v2.51c0 1.21-.82 1.91-2.44 2.13v-4.56Zm-3.44-15.96c-2.31-2.17-5.21-3.3-8.72-3.3-2.14 0-4.06.29-5.75.91-2.45.8-3.68 2.11-3.68 3.94 0 4.76 7.18 7.15 21.59 7.15 0-3.55-1.14-6.46-3.44-8.69M9.34 150.91c-2.78 0-4.16-1.08-4.16-3.24s1.38-3.22 4.16-3.22h28.91c1.58 0 2.82.59 3.76 1.78.95 1.18 1.31 2.73 1.12 4.68zm-3.3 37.14c0-4.99 1.52-8.9 4.58-11.76s7.15-4.3 12.26-4.3c4.73 0 8.99 1.55 12.75 4.6 3.78 3.06 5.98 6.97 6.61 11.75.21 1.29 0 1.93-.57 1.93-.47 0-.81-.48-1.07-1.41-.9-3.04-3.24-5.4-7.01-7.07-3.04-1.42-6.32-2.13-9.82-2.13s-6.85.71-9.65 2.13c-3.55 1.74-5.33 4.34-5.33 7.77 0 2.83.6 4.95 1.84 6.36a3 3 0 0 1 .78 2.02c0 1-.37 1.63-1.06 1.82-2.86-2.83-4.29-6.73-4.29-11.71m14.5 9.59c-2.78 0-4.18-1.19-4.18-3.55 0-2.21 1.36-3.31 4.08-3.31h30.56c2.72 0 4.92.29 6.62.89 1.11.41 2.03 1.19 2.82 2.33.77 1.14 1.15 2.36 1.15 3.63H20.54Zm3.97 32.9c-5.98 0-11.16-.96-15.58-2.83C2.97 225.09 0 221.11 0 215.8c0-3.44 1.14-6.15 3.43-8.18 2.25-2.02 5.28-3.02 9.03-3.02 4.82 0 8.5 1.95 11.1 5.85 2.21 3.37 3.33 7.67 3.33 12.92 3.17-.13 5.99-.68 8.45-1.62 3.64-1.34 5.45-3.32 5.45-5.95 0-2.48-1.71-4.34-5.16-5.54-2.4-.89-5.08-1.33-8.06-1.33.77-2.89 3.04-4.33 6.8-4.33 2.2 0 4.24.99 6.13 3.02 2.14 2.37 3.21 5.29 3.21 8.79s-1.24 6.39-3.7 8.9c-2.97 3.01-7.35 4.72-13.03 5.14v2.52c0 1.21-.82 1.92-2.44 2.11v-4.53Zm-3.44-15.94c-2.31-2.25-5.21-3.35-8.72-3.35-2.14 0-4.06.29-5.75.91-2.45.8-3.68 2.12-3.68 3.94 0 4.78 7.18 7.17 21.59 7.17 0-3.58-1.14-6.45-3.44-8.67M9.34 244.05c-2.78 0-4.16-1.07-4.16-3.23s1.38-3.24 4.16-3.24h28.91c1.58 0 2.82.6 3.76 1.78.95 1.18 1.31 2.73 1.12 4.69zm-3.3 20.59c0-9.08 4.94-13.61 14.8-13.61h10.31c3.63 0 6.33.3 8.08.91 1.11.39 2.04 1.19 2.78 2.4.73 1.22 1.12 2.47 1.12 3.75H20.84c-8.04 0-12.06 2.69-12.06 8.06 0 2.08.6 3.82 1.84 5.27q.78.885.78 2.01c0 1.01-.36 1.6-1.06 1.81-2.86-2.36-4.29-5.89-4.29-10.6m-.01 28.55c0-9.34 4.94-14.02 14.79-14.02h10.32c3.63 0 6.33.31 8.07.9 1.12.41 2.04 1.22 2.78 2.44.74 1.2 1.12 2.47 1.12 3.74H20.84c-3.75 0-6.73.75-8.86 2.26-2.15 1.52-3.19 3.6-3.19 6.21 0 2.76.6 4.85 1.83 6.28.52.58.78 1.26.78 1.99 0 1.02-.37 1.63-1.07 1.82-2.85-2.35-4.29-6.22-4.29-11.6m18.4 10.49c-2.8 0-4.19-1.16-4.19-3.51 0-2.22 1.35-3.33 4.08-3.33h8.76c2.53 0 4.57.26 6.13.8 1.12.4 2.04 1.17 2.78 2.39.74 1.16 1.12 2.39 1.12 3.65zM6.12 338c0-4.11 1.26-7.38 3.7-9.77 2.49-2.44 5.53-3.63 9.16-3.63 4.54 0 8.66 1.84 12.35 5.54 3.31 3.37 5.64 7.48 7.01 12.31l1.94-13c.28-1.56.9-2.3 1.94-2.25v17.36c0 2.09-.86 3.13-2.61 3.13-1.3 0-2.27-.63-2.93-1.9-4.6-9.09-10.44-13.63-17.51-13.63s-10.4 2.78-10.4 8.38c0 1.4.36 2.76 1.17 4.02.95 1.63 1.26 3.08.86 4.34-3.12-2.08-4.69-5.71-4.69-10.9m47.03 41.19c1.11-2.38 1.67-4.54 1.67-6.56 0-3.09-1.14-5.82-3.42-8.13-2.26-2.33-4.93-3.49-7.97-3.49H8.87c-2.55 0-3.81-1.09-3.81-3.34s1.25-3.41 3.81-3.41h32.41c4.28 0 7.95 1.58 10.98 4.77 3.07 3.2 4.58 7.05 4.58 11.56 0 3.57-.99 7.19-3.01 10.9-.99-.48-1.21-1.24-.7-2.31" class="cls-2"/><path d="M19.82 395.48c-2.38-1.71-3.7-3.91-3.94-6.62-.19-1.74.17-3.24 1.12-4.44.94-1.2 2.15-1.82 3.64-1.82 2.15 0 3.96.98 5.4 2.95 1.48 1.93 2.06 4.15 1.79 6.65q4.29.09 8.19-1.53c3.31-1.4 4.97-3.42 4.97-6.04 0-2.83-2.19-4.97-6.52-6.47a30.2 30.2 0 0 0-9.74-1.61c-4.74 0-8.59.89-11.54 2.68-2.96 1.78-4.41 4.02-4.41 6.71 0 2.17.6 3.95 1.83 5.36.52.61.78 1.27.78 2.02 0 1-.37 1.61-1.07 1.8-2.85-2.32-4.29-5.91-4.29-10.7 0-5.03 2.01-8.92 6.04-11.61 3.37-2.28 7.62-3.43 12.74-3.43s9.42 1.19 12.84 3.54c4.05 2.76 6.04 6.65 6.04 11.71 0 4.17-1.48 7.49-4.48 9.99-2.78 2.28-6.22 3.45-10.31 3.45-3.71 0-6.74-.87-9.1-2.58m5.44-8.63c-1.06-1.34-2.4-2.06-4.03-2.13-.97-.06-1.74.26-2.34.95-.57.73-.8 1.58-.68 2.6.33 2.28 3.17 3.54 8.47 3.72.13-2.07-.35-3.8-1.41-5.14m-.72 42.27c-5.98 0-11.16-.94-15.58-2.82C2.97 423.67 0 419.7 0 414.4c0-3.44 1.14-6.18 3.43-8.18 2.25-2.01 5.28-3.02 9.03-3.02 4.82 0 8.5 1.94 11.1 5.86 2.21 3.36 3.33 7.66 3.33 12.9 3.17-.12 5.99-.66 8.45-1.6 3.64-1.35 5.45-3.34 5.45-5.96 0-2.48-1.71-4.35-5.16-5.58-2.4-.85-5.08-1.3-8.06-1.3.77-2.88 3.04-4.32 6.8-4.32 2.2 0 4.24 1 6.13 3.02 2.14 2.37 3.21 5.27 3.21 8.77s-1.24 6.4-3.7 8.89c-2.97 3.04-7.35 4.76-13.03 5.16v2.53c0 1.21-.82 1.91-2.44 2.1v-4.54Zm-3.44-15.95c-2.31-2.22-5.21-3.34-8.72-3.34-2.14 0-4.06.3-5.75.91-2.45.81-3.68 2.13-3.68 3.95 0 4.77 7.18 7.15 21.59 7.15 0-3.57-1.14-6.46-3.44-8.68M9.34 442.66c-2.78 0-4.16-1.07-4.16-3.24s1.38-3.24 4.16-3.24h28.91c1.58 0 2.82.59 3.76 1.78.95 1.18 1.31 2.75 1.12 4.7z" class="cls-2"/><path d="M127.52 407.99c-5.29 3.16-13.41 5.17-21.67 5.17-17.13 0-25.92-6.87-25.92-16.45 0-5.64 3.13-10.19 8.42-12.5-4.09-2.24-6.26-6.33-6.26-10.89 0-8.65 7.74-16.37 24.8-16.37 7 0 13.93 1.47 18.92 3.7l-4.02 11.43c-4.91-2.24-9.61-3.16-14.3-3.16-7.3 0-10.5 2.16-10.5 5.41 0 2.93 1.94 4.63 6.48 4.63h14.75v11.66H102.5c-5.06 0-7.67 1.78-7.67 5.02s3.35 5.56 11.62 5.56c5.59 0 12.14-1.7 16.61-4.48l4.47 11.28Zm54.38-49.96v54.05h-14.3v-6.18c-3.42 4.78-8.63 7.26-15.12 7.26-12.21 0-19.51-8.42-19.51-23.63v-31.5h14.75v31.04c0 7.8 3.72 11.43 9.31 11.43s10.13-3.79 10.13-12.2v-30.27zm33.22 39.69h-8.04v14.36h-14.75v-54.05h23.83c14.23 0 23.16 7.64 23.16 20 0 7.95-3.72 13.82-10.2 17.06l11.25 16.99h-15.79zm.15-27.64h-8.19v15.83h8.19c6.1 0 9.16-2.93 9.16-7.87s-3.06-7.95-9.16-7.95m194.44 7.94c0 12.27-8.94 19.92-23.16 19.92h-9.09v14.13h-14.75v-54.05h23.83c14.22 0 23.16 7.64 23.16 20m-14.9 0c0-5.02-3.05-7.95-9.16-7.95h-8.19v15.83h8.19c6.11 0 9.16-2.93 9.16-7.87m67.28 29.95c-5.29 3.16-13.41 5.17-21.67 5.17-17.13 0-25.92-6.87-25.92-16.45 0-5.64 3.13-10.19 8.42-12.5-4.09-2.24-6.26-6.33-6.26-10.89 0-8.65 7.74-16.37 24.8-16.37 7 0 13.93 1.47 18.92 3.7l-4.02 11.43c-4.91-2.24-9.61-3.16-14.3-3.16-7.3 0-10.5 2.16-10.5 5.41 0 2.93 1.94 4.63 6.48 4.63h14.75v11.66h-15.72c-5.06 0-7.67 1.78-7.67 5.02s3.36 5.56 11.62 5.56c5.59 0 12.14-1.7 16.61-4.48l4.47 11.28Zm-161.42-83.55-1.88 6.03h-6.16l5.01 3.75-1.93 6.02 4.96-3.74 4.96 3.74-1.9-6.07 4.98-3.68h-6.14zm-25.41 7.04-1.88 6.03h-6.16l5.01 3.74-1.93 6.03 4.96-3.75 4.96 3.75-1.9-6.07 4.98-3.68h-6.14zm50.82 0-1.88 6.03h-6.16l5.01 3.74-1.92 6.03 4.95-3.75 4.96 3.75-1.9-6.07 4.98-3.68h-6.14zm-69.4 19.3-1.88 6.03h-6.16l5 3.75-1.92 6.02 4.96-3.74 4.95 3.74-1.89-6.07 4.98-3.67h-6.14zm87.97 0-1.88 6.03h-6.16l5.01 3.75-1.93 6.02 4.96-3.74 4.96 3.74-1.9-6.07 4.98-3.67h-6.14zm-94.82 26.3-1.87 6.03h-6.17l5.01 3.74-1.92 6.03 4.95-3.75 4.96 3.75-1.89-6.07 4.97-3.68h-6.14zm101.68 0-1.88 6.03h-6.16l5.01 3.74-1.93 6.03 4.96-3.75 4.96 3.75-1.9-6.07 4.98-3.68h-6.14zm-6.86 26.27-1.88 6.03h-6.16l5.01 3.75-1.93 6.02 4.96-3.74 4.96 3.74-1.9-6.07 4.98-3.68h-6.14zm-87.97 0-1.88 6.03h-6.16l5 3.75-1.92 6.02 4.96-3.74 4.95 3.74-1.89-6.07 4.98-3.68h-6.14zm18.58 19.36-1.88 6.03h-6.16l5.01 3.75-1.93 6.02 4.96-3.74 4.96 3.74-1.9-6.07 4.98-3.68h-6.14zm50.82 0-1.88 6.03h-6.16l5.01 3.75-1.92 6.02 4.95-3.74 4.96 3.74-1.9-6.07 4.98-3.68h-6.14zm-25.41 7.02-1.88 6.03h-6.16l5.01 3.75-1.93 6.02 4.96-3.74 4.96 3.74-1.9-6.07 4.98-3.68h-6.14z" class="cls-3"/><path d="M195.61 428.25c3.15-8.89 4.9-13.86 5.23-14.89.59-1.93 2.01-2.9 4.29-2.9.96 0 1.45.52 1.45 1.55 0 .59-.17 1.37-.5 2.36-.51 1.31-2.69 6.51-6.56 15.6-3.99 9.32-6.34 14.68-7.06 16.07-.47.9-.97 1.35-1.52 1.35-.8 0-1.19-.7-1.19-2.09 0-.54.1-1.09.31-1.62.55-1.4 2.4-6.54 5.55-15.43m9.64-1.59c2.14-1.89 3.99-3.37 5.55-4.45 1.14-.77 2.3-1.51 3.47-2.23.42-.27.95-.41 1.58-.41.76 0 1.43.19 2.01.58.59.38.89.84.89 1.38q0 .945-1.26 1.89c-7.39 5.44-12.19 9.34-14.37 11.68q-1.2 1.29-1.2 2.43c0 1.21.76 1.82 2.27 1.82q.885 0 1.95-.33c2.02-.68 4.5-1.69 7.44-3.04 1.72-.81 2.59-.52 2.59.87 0 .81-.34 1.76-1.01 2.84s-1.35 1.75-2.01 2.03c-2.52 1.03-4.77 1.55-6.75 1.55-5.08 0-7.63-2.03-7.63-6.08 0-3.2 2.17-6.71 6.5-10.53m-18.49-7.83c.8-1.71 2.31-2.57 4.54-2.57.84 0 1.26.41 1.26 1.21 0 .72-.34 1.72-1.01 2.97-1.42 2.7-4.03 6.98-7.81 12.83-.59.86-1.13 1.28-1.64 1.28-.71 0-1.07-.56-1.07-1.69 0-.72.19-1.46.57-2.23 2.23-4.87 3.95-8.8 5.17-11.82m-24.6 2.44c2.86-1.17 5.34-1.75 7.44-1.75 2.52 0 4.52.74 5.99 2.23 1.22 1.21 1.87 2.61 1.95 4.19.17 3.15-1.54 6.55-5.11 10.2-3.74 3.69-6.11 5.81-7.12 6.35-.42.22-.9.33-1.45.33-.84 0-1.59-.19-2.24-.57s-.98-.87-.98-1.45.4-1.17 1.2-1.75c1.68-1.12 3.72-2.9 6.11-5.33 2.31-2.25 4.1-4.25 5.36-6.01.54-.72.82-1.41.82-2.09 0-1.53-.93-2.29-2.78-2.29-.63 0-1.28.11-1.95.34-2.69.9-6.28 2.79-10.78 5.67q-.945.6-2.01.6-2.4 0-2.4-1.89c0-.76.38-1.57 1.13-2.43 1.47-1.66 3.74-3.11 6.81-4.32m-12.22-6.51c.55-1.71 1.93-2.57 4.16-2.57.97 0 1.45.54 1.45 1.62q0 1.08-.6 2.64c-.4 1.03-2.34 5.33-5.83 12.9-3.36 7.29-5.49 11.8-6.37 13.51-.46.9-.97 1.35-1.51 1.35-.8 0-1.2-.7-1.2-2.09 0-.54.1-1.09.31-1.62 5.3-13.65 8.49-22.22 9.58-25.73m-30.12 16.74c1.55-.72 3.09-.94 4.6-.67q1.395.195 3.06 1.59c1.11.92 1.67 1.59 1.67 1.99 0 .04-.3-.07-.88-.34-.8-.41-1.58-.54-2.33-.41-2.52.45-4.52 1.3-5.99 2.57-1.26 1.13-1.89 2.34-1.89 3.65 0 1.58.89 2.37 2.65 2.37 2.27 0 5.23-1.64 8.89-4.93 3.32-3.02 5.42-5.63 6.31-7.83.38-.86.57-1.73.57-2.63 0-1.17-.3-2.07-.92-2.7-.61-.63-1.56-.95-2.87-.95-.8 0-1.72.14-2.78.41-2.69.63-6.33 2.25-10.91 4.86-.5.27-1.07.41-1.7.41-.84 0-1.59-.22-2.24-.64-.65-.43-.97-.96-.97-1.59s.34-1.29 1.01-1.96c1.56-1.53 4.08-2.82 7.57-3.85 3.02-.9 5.69-1.35 8-1.35 4.63 0 7.57 1.89 8.83 5.67.25.67.38 1.46.38 2.37 0 3.51-1.32 6.84-3.97 9.99-1.85 2.25-4.13 4.15-6.84 5.71-2.71 1.55-5.12 2.33-7.22 2.33-1.98 0-3.66-.7-5.04-2.09-1.39-1.4-2.08-3.04-2.08-4.93 0-3.19 1.7-5.54 5.11-7.02m-27.58-10.16c4.03-1.26 7.19-1.89 9.46-1.89 4.79 0 7.75 1.8 8.89 5.4.21.72.31 1.49.31 2.3 0 3.02-1.3 5.98-3.91 8.91-1.81 1.98-3.25 3.47-4.35 4.45-.63.63-1.52 1.38-2.65 2.23-.38.27-.84.41-1.39.41-.71 0-1.36-.22-1.95-.65s-.88-.93-.88-1.52.34-1.17 1.01-1.75c5-4.46 8.3-7.92 9.9-10.4.55-.86.82-1.69.82-2.5 0-.86-.3-1.6-.92-2.23-.61-.63-1.56-.95-2.87-.95-.8 0-1.72.14-2.78.41-4.03.99-8.63 2.95-13.81 5.87-.5.27-1.09.41-1.77.41-.84 0-1.58-.21-2.2-.61-.63-.41-.95-.95-.95-1.62 0-.59.34-1.22 1.01-1.89 1.56-1.53 4.56-2.99 9.02-4.39m-6.62 13.78c.8-2.12 1.95-3.17 3.47-3.17s2.21.86 2.21 2.57c0 .5-.11 1.04-.31 1.62-.89 2.34-2.46 4.59-4.73 6.75q-.885.81-1.71.81c-.79 0-1.19-.49-1.19-1.48 0-.5.17-1.06.5-1.69l1.77-5.4" class="cls-3"/><path d="M484.16 48.79v1.81h-4.93v13.38h-2.01V50.6h-4.94v-1.81zm1.77 0h2.84l4.21 12.84 4.18-12.84h2.83v15.19h-1.89v-8.97c0-.31 0-.82.02-1.54.01-.72.02-1.49.02-2.31l-4.18 12.81h-1.97l-4.22-12.81v.47c0 .37 0 .94.03 1.7q.03 1.14.03 1.68v8.97h-1.89V48.79Z" class="cls-1"/><path d="m267.73 167.13-.12-3.29c-.03-1.13-.08-2.27-.21-3.36-.14-1.1-.32-2.23-.57-3.36-.24-1.15-.59-2.22-1.09-3.26a16.2 16.2 0 0 0-1.79-3.05c-.75-.92-1.67-1.76-2.77-2.55.68-.21 1.84-.28 3.39-.15 1.49.21 3.36.67 5.34 1.43 1.57.6 13.45 8.17 8.31 10.65-5.29 2.55-6.91 4.98-8.11 8.18-.86 2.29-2.34.89-2.39-1.24" class="cls-2"/><path d="M266.25 168.96c-.2-2.3.24-5.62.04-8.98-.12-3.44-.88-6.96-3.02-9.67-.77-.88-1.61-1.72-2.54-2.49-.92-.79-1.96-1.33-3.01-1.92-.58-.3-1.17-.59-1.77-.86-.61-.22-1.22-.42-1.84-.6-1.23-.33-2.48-.72-3.72-.81-1.23-.13-2.46-.19-3.62-.2-1.21.05-2.5.17-3.57.38-2.19.43-3.97 1.1-5.32 1.79-1.34.69-2.27 1.37-2.7 1.94 2.54.08 4.76.91 6.67 2.11.97.64 1.83 1.32 2.64 2.11.81.82 1.53 1.62 2.18 2.53 1.32 1.85 2.42 3.67 3.49 5.46.52.92 1.03 1.8 1.55 2.62.53.76 1.05 1.58 1.6 2.34.27.35.55.71.83 1.01l.93.96c.5.35 1.01.66 1.54.91.55.22 1.05.59 1.59.81.51.26 1.08.42 1.61.67.51.23 1.05.43 1.56.62 1.07.27 2.02.68 2.91.85.91.16 1.69.25 2.23.21-.09-.6-.2-1.2-.26-1.78" class="cls-2"/><path d="M250.01 161.8c-.62-.99-1.26-2.07-1.97-3.41-.71-1.29-1.51-2.82-2.44-4.13-1.89-2.76-4.49-5.23-7.67-6.18-2.19-.66-4.47-.8-6.74-.59-2.44.22-4.83.87-7.01 1.85-2.21.94-4.2 2.24-5.88 3.61-.82.68-1.58 1.44-2.26 2.13-.67.72-1.25 1.48-1.74 2.13-.96 1.42-1.54 2.59-1.7 3.39 2.49-1.62 4.89-2.07 7.13-1.94 1.12.05 2.19.25 3.25.55 1.04.29 2.05.66 3.03 1.1 1.95.85 3.84 1.88 5.63 2.82 1.82.95 3.57 1.8 5.36 2.36.89.29 1.78.48 2.69.62 1.28-.08 2.53-.22 3.66-.42 1.14-.22 2.14-.43 2.99-.73 1.01-.19 2-.47 2.81-.82.82-.29 1.46-.58 1.9-.94-.36-.43-.72-.88-1.04-1.39" class="cls-2"/><path d="M232.51 164.91c-1.03-.46-2.15-1.11-3.42-1.87-1.24-.73-2.59-1.53-4.05-2.25-2.87-1.39-6.21-2.43-9.61-1.47-2.3.75-4.67 2.09-6.76 4.5-1.76 1.95-3.21 4.05-4.2 6.09v.03c.43.66.87 1.37 1.32 2.17 1.24 2.28 2.13 4.34 2.74 6.32 0 .01 0 .02.01.03 1.24-.54 2.55-.99 3.84-1.39 2-.62 4.12-1.04 6.04-1.58.49-.13.95-.28 1.43-.43.47-.13.97-.26 1.42-.41.91-.25 1.8-.63 2.58-.92 4.43-1.98 8.76-5.86 10.27-8.25-.53-.14-1.08-.33-1.62-.57m-32.38 36.77c-.66-.78-1.38-1.74-2.17-2.88-.65-.95-1.24-1.97-1.81-3-.21.98-.35 1.92-.46 2.82-.4 3.65-.16 6.55.39 7.72.06-.11.14-.2.2-.3 1.03-1.79 2.37-3.19 3.84-4.37m11.02-18.45c1.13 1.35 2.11 2.65 2.92 3.99.69 1.14 1.68 2.82 2.53 4.74.69-.65 1.32-1.35 1.88-2.17.7-1.4 1.35-2.82 1.81-4.26.45-1.48.86-2.81 1.11-4.12.26-1.35.47-2.44.52-3.46.07-.99 0-1.86-.12-2.38-.53.22-1.03.5-1.59.7-2.13.76-5.2 1.07-8.23 1.81-1.1.25-2.19.54-3.25.91.24.86.43 1.67.59 2.44.54.43 1.13 1 1.84 1.79" class="cls-2"/><path d="M196.42 224.03c1.51-1.42 3.23-2.61 4.97-3.71 1.47-.94 2.97-1.84 4.45-2.8-.55-1.02-1.06-2.12-1.58-3.26-2.45-5.35-2.54-10.4-2.57-10.92-.39-.35-.86-.85-1.34-1.4-1.02.69-1.95 1.47-2.75 2.37-.48.55-.91 1.13-1.31 1.73-.06.1-.14.2-.2.31a27 27 0 0 0-1.77 3.17c-.95 2.01-1.54 4.13-2 6.19-.45 2.07-.59 4.11-.65 5.94-.08 1.82.08 3.49.29 4.8.2 1.31.51 2.3.79 2.86.06-.07.06-.14.13-.21.91-2.05 2.12-3.69 3.55-5.1" class="cls-2"/><path d="M206.39 218.61c-1.57.93-3.39 1.8-5.21 2.8-2.73 1.47-5.44 3.21-7.13 5.73-.43.64-.83 1.32-1.19 1.99-.04.07-.07.14-.11.21h-.02c-.07.16-.17.33-.26.5-.42.95-.78 1.92-1.12 2.9-.72 2.13-1.07 4.39-1.25 6.56-.23 2.15-.06 4.31.12 6.2.18 1.88.66 3.64 1.06 4.98.4 1.33.9 2.32 1.33 2.83.38-2.45 1.43-4.45 2.59-6.18 1.21-1.71 2.74-3.14 4.26-4.5 1.52-1.34 3.2-2.61 4.7-3.97.74-.67 1.48-1.37 2.13-2.12.69-.76 1.33-1.54 1.89-2.41.57-.87 1.07-1.79 1.47-2.81.43-1.54.71-3.13.84-4.68.09-.84.15-1.65.19-2.44l-.27-.21c-1.47-1.09-3.13-3.78-4.03-5.39" class="cls-2"/><path d="M209.23 247.3c-.15-1.41-.19-2.93-.44-4.22-.24-1.32-.47-2.56-.76-3.56-.29-1.01-.63-1.81-.96-2.29-.34.49-.7.98-1.12 1.41-1.59 1.69-4.13 3.24-6.52 5.11-1.22.93-2.44 1.95-3.49 3.09-1.03 1.15-1.9 2.44-2.52 3.91-.84 2-1.27 4.19-1.41 6.41-.16 2.41.06 4.85.53 7.16.51 2.33 1.24 4.51 2.21 6.43.47.96.94 1.86 1.5 2.68.24.4.51.77.75 1.14.28.36.55.69.82 1 .55.63 1 1.14 1.5 1.55.13.11.22.18.36.31.14.12.28.25.41.35.25.22.48.39.67.52-.2-.45-.41-.91-.58-1.34-.11-.33-.21-.68-.29-1-.12-.64-.19-1.29-.23-1.88-.12-1.23.06-2.38.24-3.45.48-2.17 1.36-4.07 2.4-5.86.49-.88 1.07-1.75 1.63-2.6.54-.85 1.09-1.67 1.65-2.51 1.06-1.66 2.05-3.33 2.75-5.15.37-.9.64-1.84.86-2.84.07-1.43.15-2.94.03-4.37" class="cls-2"/><path d="M228.45 274.25c.34-.46.46-.79.68-1.16.08.56-.07 2.16-.66 3.91-1.52 4.48-7.36 11.05-14.42 11.05-7.85 0-12.07-7.46-12.91-8.89-.39-.79-.75-1.67-.96-2.38-.17-.61-.24-1.23-.31-1.82-.36-3.53 1.08-6.54 2.73-9.12 1.66-2.59 3.58-4.75 4.66-6.7.28-.52.51-1.04.71-1.58.42.34.93.96 1.45 1.78.55.78 1.06 1.79 1.65 2.82.26.51.54 1.05.83 1.61.25.53.51 1.06.77 1.6.12.27.25.55.37.82.12.23.22.47.34.73.09.26.18.53.3.73.07.15 0 .12 0 .12-.04.02-.07.02-.09.03-.27.17-1.05 1.21-1.16 3.08-.12 2.01 1.35 8.48 7.8 8.48s7.88-4.39 8.22-5.1" class="cls-2"/><path d="M233.53 255.62c-.14-1.99-.52-3.71-.91-5.07-.42-1.37-.82-2.34-1.24-2.85-.39 2.42-1.3 4.41-2.46 6.12-1.18 1.72-2.6 3.14-4.12 4.43-1.5 1.29-3.1 2.43-4.6 3.6-1.53 1.14-2.95 2.3-4.2 3.5-.33.29-.64.59-.92.91-.65.67-1.74 2.33-1.91 3.88.03.42.11.82.23 1.3.09.37.21.75.35 1.15.15.39.33.85.55 1.3.45.87 1.14 1.92 1.96 2.68.41.37.93.86 1.41 1.08.47.24.99.45 1.58.64 2.19.59 5.05.14 7.63-2.38.6-.49 1.04-1.07 1.53-1.86.45-.47.78-.95 1.12-1.45.72-1.04 1.3-2.1 1.8-3.2 1.08-2.37 1.74-4.85 2.05-7.2.17-1.17.28-2.32.28-3.41.03-1.11 0-2.17-.11-3.15" class="cls-2"/><path d="M231.89 240.36c-.07-1.14-.19-2.29-.39-3.37-.42-2.13-.95-4.18-1.62-5.91-.67-1.72-1.38-3.21-2.04-4.35-.68-1.14-1.31-1.92-1.79-2.31.13 2.28-.3 4.39-.98 6.29-.35.95-.75 1.87-1.19 2.74-.47.89-.99 1.75-1.51 2.6-1.06 1.66-2.12 3.33-3.17 4.97-1.06 1.66-1.89 3.38-2.58 5.2-.34.9-.63 1.84-.8 2.82-.08 1.45-.09 2.94-.04 4.35.05.71.07 1.41.12 2.1.08.66.12 1.32.2 1.95.16 1.26.31 2.37.53 3.31.22.93.41 1.66.71 2.13.36-.42.74-.8 1.16-1.18 1.61-1.41 4.03-2.78 6.39-4.56 2.33-1.79 4.6-4 5.72-6.91.81-1.99 1.13-4.17 1.32-6.38.12-1.22.02-2.33-.04-3.49" class="cls-2"/><path d="M225.94 220.78c-.28-2.21-.78-4.34-1.42-6.34a42 42 0 0 0-2.28-5.43c-1.69-3.17-3.41-5.43-4.41-6.06.33 2.25.14 4.33-.31 6.28-.41 1.93-1.17 3.78-1.95 5.58-.82 1.79-1.62 3.55-2.36 5.39-.73 1.82-1.31 3.72-1.55 5.74-.12 1.03-.2 2.07-.15 3.18.13.79.29 1.57.5 2.34.17.78.36 1.53.57 2.27.43 1.48.99 2.9 1.46 4.14.49 1.26 1.05 2.37 1.55 3.26.47.89.93 1.57 1.34 1.95.19-.56.43-1.1.69-1.62 1.05-1.99 2.8-4.11 4.55-6.51 1.71-2.39 3.21-5.04 3.7-8.03.28-2 .26-4.09.06-6.14" class="cls-2"/><path d="M217.35 199.4c-.43-2.17-1.17-4.19-1.95-6.12-.82-1.92-1.78-3.65-2.73-5.17-.92-1.53-1.91-2.79-2.75-3.75-.84-.98-1.58-1.64-2.09-1.94 1.05 4.45.09 8.24-1.14 11.94-.59 1.84-1.27 3.68-1.81 5.54-.53 1.89-.87 3.8-.93 5.88-.04 1.04.03 2.1.21 3.21.46 1.55.95 3.11 1.6 4.57.62 1.45 1.3 2.83 1.96 4.06 1.39 2.45 2.75 4.3 3.65 4.98.09-.6.22-1.19.39-1.75.68-2.19 2.1-4.55 3.47-7.13 1.38-2.6 2.53-5.35 2.68-8.31.1-2.03-.17-4.05-.56-6.03" class="cls-2"/><path d="M208.11 184.9c-.07-2.03-.53-4.01-1.11-5.95-.66-2.11-1.58-4.12-2.6-5.97-1.05-1.87-2.16-3.55-3.41-5.03-.31-.36-.6-.72-.89-1.06-.13-.17-.28-.33-.43-.49-.12-.13-.23-.26-.36-.38-.44-.46-.89-.87-1.28-1.23-.83-.73-1.56-1.17-2.04-1.42.54 1.92.65 3.71.61 5.68.04 2.04-.18 3.95-.58 5.85-.39 1.9-.8 3.74-1.16 5.65-.33 1.92-.47 3.82-.35 5.86.09 1.03.22 2.07.5 3.15.56 1.49 1.22 3 1.96 4.38.76 1.38 1.51 2.74 2.3 3.89 1.6 2.33 3.08 4.11 4.06 4.69.01-.61.08-1.22.18-1.78.43-2.24 1.66-4.72 2.73-7.37 1.08-2.68 2.01-5.52 1.85-8.46" class="cls-2"/><path d="M195.69 168.36c-.21-1.43-.5-3-.95-4.45-.5-1.53-1.08-3.14-1.75-4.59-.34-.73-.7-1.41-1.05-2.09-.36-.68-.73-1.34-1.09-1.94-.71-1.2-1.45-2.24-2.09-3.04-.62-.8-1.18-1.4-1.56-1.66.57 3.6-.22 6.53-1.18 9.58-.47 1.5-.94 3-1.24 4.6-.32 1.6-.52 3.27-.23 5.11.12.91.31 1.87.64 2.86.63 1.4 1.54 2.81 2.43 4.11.24.35.41.55.6.8.18.24.35.47.54.71.37.46.75.85 1.12 1.3.73.87 1.48 1.62 2.11 2.19.65.6 1.2 1.02 1.63 1.23-.03-.51-.03-1 0-1.48.14-1.85.88-3.96 1.45-6.26.28-1.14.5-2.34.6-3.57.06-1.24.18-2.33.02-3.43m103.36 44.29c-.23-1.7-.53-3.21-.89-4.44-.35-1.23-.89-2.17-1.3-2.72-1.05-1.78-4.39 5.3-10.73 8.96-6.51 3.77-8.7 6.16-9.97 8.89-1.51 3.33-2.09 6.84-2.33 8.38-.54 3.56-.36 6.3-.12 6.9 1.37-1.49 3.11-2.53 4.98-3.38 1.84-.87 3.87-1.52 5.96-2.19 4.06-1.4 8.4-2.86 11.37-6.43.75-.87 1.46-1.85 1.98-3.04.52-1.78.97-3.64 1.09-5.52.11-1.89.16-3.71-.04-5.4" class="cls-2"/><path d="M294.29 229.93c-.49.48-1.01.92-1.58 1.32-2.15 1.45-5.23 2.35-8.45 3.24-3.21.89-6.37 1.82-8.75 3.47-.8.57-1.53 1.19-2.2 1.84-.71.64-1.35 1.32-1.95 2.01-2.55 3.02-4.34 6.45-5.42 9.5s-1.54 5.68-1.29 6.95c1.65-1.35 3.5-2.21 5.54-2.81 1.97-.63 4.07-1.01 6.25-1.38s4.32-.78 6.43-1.45c1.06-.33 2.1-.7 3.1-1.18 1-.5 1.94-1.09 2.85-1.8.87-.71 1.74-1.52 2.5-2.52.89-1.58 1.6-3.28 2.18-4.99.54-1.73.89-3.47 1.12-5.06.41-3.22.16-5.93-.34-7.14" class="cls-2"/><path d="M286.51 252.47c-.58.37-1.14.7-1.75.96-2.34 1-5.57 1.28-8.88 1.58-1.64.16-3.28.33-4.83.63-1.58.3-3.07.71-4.36 1.36-1.74.93-3.34 2.01-4.72 3.24-2.99 2.67-5.21 5.89-6.71 8.82-1.51 2.9-2.22 5.52-2.14 6.77 3.6-2.27 7.86-2.47 12.24-2.65 2.19-.08 4.39-.18 6.56-.53 2.13-.33 4.3-.89 6.23-2.03.96-.56 1.92-1.21 2.83-2.06 1.1-1.38 2.02-2.93 2.84-4.47.79-1.56 1.38-3.2 1.86-4.68.94-3 1.12-5.67.83-6.95" class="cls-2"/><path d="M275.51 273.05c-.6.27-1.22.52-1.84.68-2.43.65-5.67.45-8.98.32-3.27-.09-6.65-.16-9.36.82-1.84.71-3.59 1.59-5.11 2.66-6.55 4.6-10.39 11.9-10.53 14.45 1.92-.88 3.94-1.28 6.01-1.4 2.08-.11 4.27.06 6.42.21 4.38.33 8.86.72 12.99-.99 1.04-.43 2.04-.97 3.03-1.69 5.01-4.87 7.7-12.45 7.37-15.06" class="cls-2"/><path d="M260.32 292.32c-4.99.71-12.74-2.33-18.34-1.04-1.95.43-3.69 1.18-5.33 2.02-3.52 1.87-6.37 4.41-8.42 6.77-2.06 2.37-3.34 4.53-3.55 5.76 3.87-1.01 8.03-.08 12.31.83 2.14.47 4.33.92 6.5 1.1 2.19.22 4.37.14 6.54-.47 1.06-.29 2.15-.71 3.18-1.33 5.57-4.27 9.06-11.45 9.01-14.09-.63.21-1.27.35-1.91.45" class="cls-2"/><path d="M244.96 309.24c-5.06.09-12.43-3.93-17.98-3.65-1.92.11-3.7.39-5.31.8-.84.18-6.44 1.95-8.74 3.08.62.63 1.2 1.47 1.64 2.17.23.37.46.77.69 1.21.19.38.4.78.53 1.19.27.85.72 1.66 1.29 2.54.57.82 1.28 1.58 2.13 2.32.82.64 1.83 1.3 2.84 1.81 1 .51 2.07.98 3.2 1.34 1.08.34 2.21.63 3.38.78 1.17.12 2.31.14 3.52.02 1.23-.13 2.35-.41 3.59-.87 6.58-3.51 10.87-10.36 11.17-12.96-.65.12-1.29.2-1.95.22" class="cls-2"/><path d="M226.29 323.87c-1.38-.28-2.79-.86-4.2-1.67-.72-.41-1.45-.9-2.11-1.41-.68-.46-1.28-1.12-1.83-1.73-.27-.31-.51-.64-.74-.96-.24-.36-.44-.71-.65-1.07-.39-.69-.72-1.38-.94-2.1-.21-.7-.44-1.29-.74-1.95-.3-.64-.59-1.24-.91-1.74-.48-.78-.99-1.5-1.51-2.1-.54-.71-1.11-1.33-1.7-1.9-2.58-2.56-5.74-4.51-8.58-5.76-2.85-1.25-5.37-1.87-6.58-1.67 2.41 3.55 2.86 7.91 3.41 12.42.26 2.25.56 4.54 1.15 6.74.55 2.24 1.46 4.34 2.92 6.3.79.97 1.63 1.89 2.76 2.72.93.47 1.84.93 2.86 1.31.54.17 1.09.34 1.65.5.58.16 1.04.32 1.76.42.6.12 1.47.2 2.25.27.79.11 1.55.02 2.31 0 1.51.05 2.91-.46 4.23-.82.66-.2 1.29-.54 1.89-.8.66-.29 1.03-.54 1.49-.8.78-.53 1.38-1.05 1.96-1.53.56-.49.95-.95 1.26-1.38.32-.42.57-.8.71-1.14-.73 0-1.44-.04-2.13-.15" class="cls-2"/><path d="M199.52 320.89c-1.88-4.96-.44-13.45-2.65-18.88-.78-1.86-1.75-3.55-2.84-5.06-4.78-6.45-12.07-10.05-14.54-10.05 1 1.95 1.48 4.02 1.72 6.16.23 2.16.19 4.4.18 6.66-.07 4.53-.18 9.21 1.74 13.4.5 1.05 1.09 2.05 1.85 3.03 2.55 2.43 5.73 4.29 8.64 5.39 2.9 1.12 5.56 1.48 6.81 1.2-.37-.59-.66-1.22-.91-1.86" class="cls-2"/><path d="M180.41 308.3c-1-5.12 1.49-13.35-.11-19.05-.52-2.01-1.36-3.76-2.28-5.43-1.01-1.77-2.22-3.34-3.44-4.78-.62-.68-1.27-1.34-1.92-1.93a22 22 0 0 0-1.9-1.67c-2.54-1.97-4.83-3.22-6.08-3.33 3.1 8.09-2.11 17.66.73 26.44.34 1.1.81 2.18 1.45 3.22 4.41 5.47 11.54 8.68 14.11 8.47-.24-.64-.43-1.29-.56-1.95" class="cls-2"/><path d="M165.23 274.53c-.33-2.02-.92-3.88-1.65-5.64-.38-.95-.84-1.84-1.34-2.67-.45-.87-.96-1.68-1.49-2.44-1.09-1.52-2.19-2.88-3.31-4.03-1.12-1.13-2.19-2.08-3.14-2.78-.95-.69-1.8-1.13-2.39-1.27.5 2.09.43 4.2.15 6.34-.27 2.11-.83 4.29-1.38 6.48-1.07 4.37-2.27 8.95-1.3 13.46.23 1.12.55 2.28 1.11 3.38a29 29 0 0 0 3.27 4.11c1.22 1.19 2.5 2.25 3.72 3.16 2.5 1.74 4.81 2.76 6.09 2.83-.17-.67-.28-1.33-.35-2-.4-5.22 2.94-13.08 2.01-18.95" class="cls-2"/><path d="M152.13 258.14c-.03-1.02-.12-2-.27-2.95-.13-.97-.32-1.91-.54-2.79a32 32 0 0 0-4.56-9.79c-.94-1.26-1.72-2.39-2.56-3.19-.79-.83-1.57-1.4-2.11-1.65.07 2.1-.31 4.12-1.01 6.17-.64 2.01-1.5 4.03-2.42 6.12-.94 2.08-1.76 4.16-2.41 6.36-.31 1.09-.57 2.21-.75 3.36-.13 1.12-.18 2.26-.1 3.43.1 1.17.27 2.37.64 3.56.78 1.62 1.74 3.19 2.76 4.59 1.08 1.4 2.25 2.62 3.35 3.7 2.27 2.1 4.49 3.37 5.73 3.62-.08-.68-.13-1.35-.09-2.03.11-2.63 1.18-5.76 2.29-9.01 1.06-3.26 2.07-6.52 2.04-9.5" class="cls-2"/><path d="M142.19 234.51c-.04-.5-.1-.97-.12-1.44-.04-.48-.08-.94-.15-1.4-.12-.92-.28-1.79-.51-2.64-.38-1.7-.82-3.27-1.42-4.64-.48-1.4-1.05-2.61-1.65-3.57-.58-.97-1.05-1.68-1.52-2.06-.59 1.94-1.42 3.72-2.58 5.48-1.21 1.77-2.48 3.48-3.83 5.28-1.34 1.79-2.72 3.67-3.74 5.67-1.04 1.99-1.95 4.23-2.17 6.57-.12 1.19-.15 2.42 0 3.73.95 3.6 2.77 7.01 4.73 9.53 1.92 2.55 3.98 4.17 5.17 4.64 0-.69.07-1.38.17-2.06.48-2.57 2.03-5.53 3.66-8.53.78-1.52 1.58-3.03 2.22-4.5.65-1.5 1.2-2.98 1.43-4.42.26-1.95.42-3.86.31-5.65" class="cls-2"/><path d="M138.54 205.53c-.1-1.45-.22-2.73-.51-3.82-.13-.54-.28-1.02-.44-1.43-.14-.41-.28-.72-.44-.97-2.07 3.27-5.7 5.54-9.22 8.15-3.66 2.59-7.14 5.49-9.14 9.94-.47 1.11-.76 2.34-.95 3.69-.02.98 0 1.95.1 2.94.12.97.3 1.92.5 2.85.19.92.44 1.84.69 2.71.31.85.64 1.67.96 2.42 1.3 3.09 3 5.21 4.1 5.96.14-.71.35-1.36.59-2 .93-2.45 3.22-5.03 5.41-7.53 2.13-2.51 4.6-5.03 5.7-7.54.89-1.76 1.46-3.44 1.86-5.13.53-1.86.78-3.7.79-5.43.19-1.7.17-3.32 0-4.8" class="cls-2"/><path d="M144 182.77c-.78.44-1.64.77-2.55 1.04s-1.78.56-2.75.78c-.97.23-1.99.41-3.07.61-1.04.18-2.03.42-3.12.66-4.29.92-8.75 2.42-11.99 6.24-.77.95-1.48 2.03-2.09 3.27-.18.48-.33.96-.47 1.44a31 31 0 0 0-.69 4.37c-.07.97-.19 1.94-.13 2.85s.13 1.81.23 2.64c.21 1.67.48 3.2.89 4.38.45 1.19.9 2.08 1.33 2.61.33-.62.69-1.21 1.1-1.74.41-.51.89-1.01 1.41-1.49.56-.48 1.17-.96 1.81-1.41 1.28-.91 2.71-1.78 4.12-2.64 2.76-1.73 5.8-3.35 7.64-5.34.62-.71 1.22-1.38 1.8-2.06.57-.68 1.06-1.37 1.48-2.06.43-.78.97-1.46 1.35-2.19.42-.72.75-1.45 1.05-2.17.36-.67.67-1.34.92-2.02.24-.67.41-1.37.68-1.95.22-.61.4-1.21.53-1.8.12-.57.22-1.14.35-1.61.21-.97.25-1.82.15-2.4" class="cls-2"/><path d="M146.05 168.94c-2.03-.68-4.31-1.42-6.53-1.56-2.25-.17-4.71-.04-7.01.99a16.7 16.7 0 0 0-2.65 1.4c-.28.19-.55.41-.83.64-2.9 2.97-5.01 6.95-5.95 10.44-.45 1.75-.79 3.34-.85 4.67-.04 1.36.08 2.42.29 3.09.54-.5 1.09-.95 1.66-1.32.56-.34 1.16-.66 1.84-.92.7-.26 1.43-.48 2.21-.66 1.52-.37 3.15-.63 4.77-.85 1.55-.24 3.31-.32 4.82-.53 1.56-.18 2.86-.48 4.19-.84.87-.26 1.65-.55 2.38-.89.71-.34 1.5-.59 2.15-.94 1.39-.79 2.8-1.44 3.88-2.34.6-.37 1.17-.76 1.66-1.19.28-.21.49-.46.76-.65.26-.19.51-.39.74-.59.48-.4.91-.82 1.3-1.26.4-.36.79-.73 1.11-1.11.66-.73 1.11-1.48 1.32-1.97-3.49-.28-7.15-2.19-11.29-3.61" class="cls-2"/><path d="M166.14 161.92c-2.79-3.49-6.21-6.87-11.23-7.89-1.23-.2-2.55-.27-3.96-.14-1.02.18-1.98.56-2.95.93-.97.4-1.94.81-2.83 1.3-.89.55-1.73 1.11-2.53 1.68-.79.58-1.58 1.14-2.21 1.83-1.28 1.31-2.41 2.5-3.14 3.68-.72 1.19-1.16 2.19-1.31 2.9.73-.18 1.44-.3 2.13-.33.69-.02 1.38 0 2.08.11.74.14 1.48.34 2.24.58 1.51.47 3.04 1.11 4.52 1.78 3.08 1.5 5.83 3 8.34 3.76 1.7.37 3.32.84 4.78.88 1.64.28 3.11.2 4.55.2.34 0 .69-.04 1.04-.08.32-.03.61-.03.91-.06.31-.03.59-.08.89-.12.32-.03.62-.06.92-.1.58-.11 1.16-.22 1.72-.29.54-.11 1.07-.26 1.56-.38.93-.22 1.7-.54 2.16-.89-2.92-2.28-4.93-5.82-7.68-9.35" class="cls-2"/><path d="M172.64 168.02c-.53-.44-1.09-.91-1.65-1.46-.79-.8-1.52-1.74-2.27-2.89-.75-1.12-1.53-2.28-2.31-3.43-.81-1.12-1.7-2.27-2.65-3.23-.95-.93-1.95-1.73-2.99-2.27-.55-.28-1.16-.51-1.79-.64.45-.5 1.24-1.04 2.33-1.59.54-.27 1.15-.55 1.83-.82.68-.28 1.49-.48 2.32-.68 2.26-.54 5.37-.64 7.32-2.44 1.96-1.79 4.74.05 3.24 3.2-1.28 2.74-4.43 6.83-2.23 14.44.39 1.35-.05 2.58-1.16 1.81M402.28 306.6l4.41-14.97c.34-1.34 1.39-2.01 3.19-2.01h24.26v-68.75c0-7.95-3.34-11.92-10.05-11.92-3.59 0-7.26 1.1-11.04 3.29-.97.34-1.54.52-1.71.52-.81 0-1.3-.33-1.47-1.02l-5.14-15.98c-.16-.33-.24-.84-.24-1.51 0-1.03.41-1.71 1.22-2.04 3.6-1.52 11.68-2.29 24.28-2.29 20.24 0 30.38 10.15 30.38 30.43v86.76c0 2.03-.97 3.03-2.94 3.03h-52.45c-1.97 0-2.94-.67-2.94-2.03 0-.67.08-1.17.24-1.51" class="cls-2"/><path d="M305.44 193.22c7.19-2.71 24.18-4.06 50.96-4.06 18.96 0 31.97 5.75 38.99 17.26 5.39 8.96 8.09 24.1 8.09 45.39 0 40.42-16.58 60.61-49.76 60.61-19.94 0-34.79-2.52-44.61-7.6-.97-.5-1.46-1.19-1.46-2.04 0-.51.16-1.26.48-2.27l6.38-14.47c.81-1.34 1.64-2.02 2.45-2.02.49 0 1.3.34 2.44 1.02q15.435 8.37 31.62 8.37c9.15 0 15.68-3.04 19.61-9.13 3.91-6.09 5.87-16.49 5.87-31.19s-.73-24.44-2.19-29.68c-3.1-10.49-9.97-15.74-20.59-15.74-8.83 0-14.94 1.53-18.38 4.56v26.38h15.21c1.79 0 2.85.68 3.18 2.03l4.16 15.47v1.27c0 1-.65 1.52-1.95 1.52h-44.58c-1.49 0-2.23-1.11-2.23-3.3v-48.45l-4.65-9.12c-.49-1.03-.72-1.78-.72-2.3 0-1.51.56-2.36 1.71-2.53m-222.96-1.76h19.61c.81 0 1.8.67 2.94 2.03 2.62 3.04 3.92 10.33 3.92 21.82v38.8c0 1.35-.89 2.03-2.69 2.03H85.46c-1.8 0-2.69-.85-2.69-2.54v-44.13c0-2.03-.41-4.94-1.23-8.76-.82-3.8-1.23-6.2-1.23-7.22 0-1.35.73-2.03 2.2-2.03" class="cls-2"/></g></svg>
