<svg xmlns="http://www.w3.org/2000/svg" viewBox="0 0 547.73449 263.00449">
  <defs>
    <style>
      .cls-1 {
        fill: #fff;
      }

      .cls-2 {
        fill: #15b4bc;
      }
    </style>
  </defs>
  <g id="Layer_2" data-name="Layer 2">
    <g id="Layer_1-2" data-name="Layer 1">
      <path class="cls-1" d="M369.65449,0V44.10079a1.84378,1.84378,0,0,0,.41613-.212c4.34836-4.21017,9.7178-6.17522,15.5828-6.938a28.21449,28.21449,0,0,1,15.38789,1.88036c6.77883,3.01278,10.2871,8.26345,10.32188,15.68629.05373,11.46689.00656,22.93423.02675,34.40134a16.61993,16.61993,0,0,0,.29636,3.20756,3.2355,3.2355,0,0,0,3.48736,2.80377c1.54875-.04137,3.0922-.28126,4.81441-.45057.72627,2.40307,1.49379,4.89786,2.21271,7.40655a.85324.85324,0,0,1-.35315.73c-6.06425,3.171-12.40453,5.00458-19.25581,3.22824-5.0787-1.31676-8.1675-5.23942-8.68758-10.54961-.09319-.95153-.13339-1.9119-.13415-2.86824q-.01339-17.08085-.0058-34.16169c-.00006-4.18713-2.04261-6.5397-6.24278-7.19122A15.05817,15.05817,0,0,0,370.41911,62.807a29.39072,29.39072,0,0,0-.73128,6.51872c-.07433,10.147-.03293,20.2949-.03293,30.66891a31.76274,31.76274,0,0,0-17.4833-5.50422V93.12928q.00036-46.26811-.00084-92.53623c0-.19768-.02365-.39537-.03627-.593Z"/>
      <path class="cls-1" d="M547.73449,42.92087q-1.92788,4.6758-3.85429,9.35219c-.46471,1.13124-.91336,2.26906-1.37813,3.42581-9.15615-6.33587-22.39506-.596-24.27885,10.44057a24.61369,24.61369,0,0,0-.34189,4.04629c-.029,9.30785-.01524,18.61582-.01524,27.92376v1.42144c-6.109-3.20956-11.85609-2.78261-17.45285,1.132V37.59216H517.7973v8.63906a5.66273,5.66273,0,0,0,.6937-.51482,21.966,21.966,0,0,1,28.63963-3.37092c.18937.12931.40207.22449.60386.33561Z"/>
      <path class="cls-2" d="M164.8297,142.55442q.93984.81974,1.87979,1.63932c2.58958,2.25256,4.60826,4.85414,5.05008,8.39029.34977,2.79962-.55837,5.338-1.71532,7.81119a19.15771,19.15771,0,0,1-1.06787,1.9998c-.59129.951-1.14778.92245-1.83572.03637-1.06756-1.375-2.178-2.71673-3.27068-4.07144-.10821-.06244-.21608-.126-.32394-.18954l.13828.36933c.32249.59048.63073,1.18925.96961,1.77019,3.45315,5.91983,2.98113,11.02541-1.52024,16.37537-1.95784,2.32692-2.24946,2.24921-3.48158-.48157-.74623-1.65385-1.71727-3.20642-2.58765-4.80421q-.0693-.16629-.13784-.33315l-.145.06946.17937.35445c.37525,1.0905.73434,2.18689,1.12841,3.27056,2.37612,6.53435,1.08894,11.30152-4.36563,15.59112-2.21077,1.73862-2.83931,2.62646-3.43688-1.08726a31.28288,31.28288,0,0,0-1.29915-4.26l-.41629.1109c.19321,1.15173.41332,2.29969.57524,3.45579.99852,7.12973-1.59791,11.37785-7.80573,14.61439-1.28739.67119-1.69764.40308-1.87449-1.03067-.15118-1.22593-.26767-2.45727-.4617-3.67633a3.91269,3.91269,0,0,0-.71007-1.69134c0,1.26136-.04261,2.52441.00737,3.78379.2177,5.485-2.1773,9.42989-7.005,11.9521-.81281.42466-1.63369.84335-2.48184,1.18886-1.25544.51143-1.5542.27206-1.59931-1.04928-.08507-2.4909-.20691-4.98053-.47246-7.43653-.3052,2.43738-.43539,4.9124-.95054,7.30465-1.22273,5.67821-5.15517,9.25772-10.8994,10.19563-1.43624.23451-1.76644-.16416-1.51285-1.64819.26217-1.5343.43667-3.08354.64951-4.62626l-.45755-.09057c-.22469.77639-.49511,1.54286-.66667,2.3308-1.1194,5.14119-4.02765,8.34363-9.37049,9.45569-3.84717.80073-6.83527-.738-9.80558-2.6477-.84009-.54013-.56036-1.34281.43993-1.77195a33.403,33.403,0,0,0,3.444-1.63608,10.531,10.531,0,0,0,1.66107-1.46782l-.18311-.28426c-.62872.29188-1.25142.59764-1.88715.87341-3.78231,1.64062-7.58616,2.25878-11.392.09915a17.241,17.241,0,0,1-5.746-5.6766c-.65784-.988-.44037-1.46123.762-1.7998,1.45833-.41064,2.93789-.7468,4.39269-1.16876a10.15632,10.15632,0,0,0,1.48133-.69257q.169-.04181.33824-.08341l-.05471-.1166-.31084.16876c-1.26795.108-2.539.18816-3.80332.32887a13.10742,13.10742,0,0,1-14.12652-8.39838c-.58244-1.45137-.20875-1.87049,1.40691-1.95162,1.92464-.09667,3.84081-.36167,5.76065-.55371l-.02922-.63253c-1.79378,0-3.59005.061-5.38088-.01162-5.04523-.20445-8.40321-2.87513-10.48754-7.327-.42241-.90224-.82365-1.81941-1.15549-2.75764-.4049-1.14486-.03368-1.6357,1.21292-1.65379.9586-.01389,1.91806.04824,2.87729.05517,1.46728.01063,2.93468.00281,4.402.00281l.03371-.36145c-1.30684-.15094-2.612-.31886-3.92086-.44924a15.4816,15.4816,0,0,1-7.7495-2.57448c-3.33067-2.39672-4.54453-5.95319-5.2052-9.76958-.17225-.99506.28772-1.19849,1.45249-.9793,1.80313.33933,3.62269.59158,5.43529.88076l.08917-.46819c-.94255-.25672-1.88158-.52725-2.82821-.76791-6.15349-1.56427-9.42783-5.43708-9.95013-11.77837-.05563-.67535-.14516-1.34919-.17031-2.02554-.056-1.50525.39928-1.73436,1.78283-1.19921,2.66315,1.03009,5.36864,1.95093,8.05657,2.91706l.16119-.39255c-1.24411-.55457-2.52347-1.0427-3.72427-1.67884a38.868,38.868,0,0,1-5.66728-3.26584c-2.46627-1.90339-2.965-4.889-3.57185-7.76219a11.09806,11.09806,0,0,1,.948-6.52261c.44747-1.12917,1.048-1.20484,2.0279-.413q5.16735,4.17611,10.3521,8.33073a1.42686,1.42686,0,0,0,.34648.10683,5.07139,5.07139,0,0,0-2.641-2.81686,22.90719,22.90719,0,0,1-6.77052-5.98891c-2.92156-3.46849-1.315-7.98251,1.63388-10.65616a1.54673,1.54673,0,0,1,1.50479.15407c2.20582,2.623,4.25846,5.37506,6.47661,7.98707a12.5753,12.5753,0,0,1,2.83764,10.053c-.19443,1.739-.26173,3.49269-.36291,5.24111a1.91557,1.91557,0,0,0,.18485.67928,30.04285,30.04285,0,0,1,2.149,9.99681,1.28914,1.28914,0,0,0,.39882.81066,20.04274,20.04274,0,0,1,5.1884,9.6948,6.47687,6.47687,0,0,0,2.14442,3.49,21.82654,21.82654,0,0,1,6.162,8.99553,6.79023,6.79023,0,0,0,2.1899,2.85976,21.80025,21.80025,0,0,1,7.22175,8.47726,5.33511,5.33511,0,0,0,2.58834,2.67372,21.30037,21.30037,0,0,1,8.17877,7.2218,4.51514,4.51514,0,0,0,2.62449,1.9384c1.68951.477,3.37575.97305,5.038,1.53578a2.349,2.349,0,0,0,2.53867-.54924,25.47048,25.47048,0,0,1,10.09336-5.55093,5.00089,5.00089,0,0,0,2.29887-1.60524,24.46829,24.46829,0,0,1,9.01931-6.96507,6.956,6.956,0,0,0,2.70629-2.37289,22.89255,22.89255,0,0,1,7.84866-7.58916,6.48366,6.48366,0,0,0,2.77551-3.03774,22.68475,22.68475,0,0,1,7.00888-8.51714,5.45458,5.45458,0,0,0,1.76612-2.70757,18.49394,18.49394,0,0,1,5.03606-8.95933c1.43272-1.33485,1.49889-3.10559,1.73542-4.83368a24.11156,24.11156,0,0,1,2.88181-8.81439,3.443,3.443,0,0,0,.32025-2.26032,26.40261,26.40261,0,0,1-.27046-11.045,3.72,3.72,0,0,0-.4651-2.47374,28.3155,28.3155,0,0,1-3.73238-8.50976,4.02486,4.02486,0,0,0-2.32182-2.74088,20.757,20.757,0,0,1-6.86177-5.13,2.53282,2.53282,0,0,0-2.50085-.77685,21.646,21.646,0,0,1-10.65762-.57031,20.59294,20.59294,0,0,1-2.29588-1.01087c-2.058-1.03064-3.39048-.54621-4.27657,1.628-.64447,1.58135-1.1194,3.24477-1.89392,4.75709a9.7683,9.7683,0,0,1-5.47107,5.26464c-.55405.19095-.97542.98292-1.30018,1.58309-1.2681,2.34348-2.4451,4.73633-3.72563,7.07272-.24339.44409-.80333.715-1.21721,1.0658a8.91427,8.91427,0,0,1-.90687-1.31016c-.62792-1.36051-1.19037-2.75116-1.77855-4.13l-.371.13192c.23233.76265.43287,1.53669.702,2.28612,2.081,5.79411.85741,11.07-2.5089,16.00427-.82665,1.21166-1.35517,1.16646-2.0294-.11608-.71849-1.36672-1.42484-2.7398-2.13649-4.11009l-.324.12232a16.62687,16.62687,0,0,0,.69329,2.02879c2.63279,5.3979,2.34351,10.72018-.35406,15.9926-.78129,1.527-1.376,1.56249-2.37574.18534-.60942-.83947-1.24529-1.66009-1.88412-2.47758-.08582-.10983-.25886-.15166-.735-.41478a13.19144,13.19144,0,0,0,.79067,1.49436,18.24638,18.24638,0,0,1,3.2706,14.29765,8.877,8.877,0,0,1-.17979.93839c-.30325,1.11606-.73561,1.32177-1.71421.75763-.896-.5165-1.75734-1.09286-2.634-1.64279l-.24025-.11066.11.24428,6.48755,5.83026c.88944-1.61714,1.70119-3.12087,2.5393-4.60981,1.05646-1.87688,1.61612-1.919,2.86739-.21822,1.06106,1.4422,2.1,2.90069,3.14868,4.352l.26385-.14313c-.34267-.68267-.6463-1.38865-1.03713-2.04261-.59369-.99338-1.21958-1.97038-1.88125-2.91992-3.02708-4.34412-2.917-9.054-1.62569-13.89138.25378-.95068.77437-1.07887,1.61393-.46973.92493.67108,1.81627,1.38839,2.72224,2.08557l.24072-.20882c-.21529-.27078-.41217-.55892-.649-.80937-1.15236-1.21884-2.37248-2.37873-3.46331-3.6497a7.51916,7.51916,0,0,1-.31961-9.90375,1.82791,1.82791,0,0,1,2.68189-.69835c.94518.41877,1.86886.886,2.80226,1.33148q.10911.05279.21791.10589l-.1194-.20841c-.69614-.51578-1.37061-1.06435-2.09289-1.54054-1.51615-.9996-1.70593-1.87881-1.06474-3.55155a41.6315,41.6315,0,0,0,1.63805-5.32552,14.88582,14.88582,0,0,1,3.354-5.86616c.45121-.55783,1.099-.30252,1.239.40507a6.195,6.195,0,0,1,.13788,2.36826,7.90013,7.90013,0,0,0,.68938,4.89457,21.58906,21.58906,0,0,1,1.63951,12.84973,7.82364,7.82364,0,0,0,.51142,3.383,20.834,20.834,0,0,1-.295,13.61069,6.11308,6.11308,0,0,0-.30074,2.34477c.366,8.95829-3.6485,15.66944-10.75377,20.70652-4.02526,2.85362-9.116,2.00154-12.55476-2.01186a20.51473,20.51473,0,0,1-2.528-4.03717c-.95714-1.86937-1.71375-3.84-2.61533-5.73925a14.86992,14.86992,0,0,1-.70714-11.72555,14.52919,14.52919,0,0,0,.79095-4.90109,25.34532,25.34532,0,0,1,3.17409-12.85272,11.58341,11.58341,0,0,0,1.1012-3.85263A25.52316,25.52316,0,0,1,98.4252,141.4822a18.06635,18.06635,0,0,0,2.15258-4.73621,25.83408,25.83408,0,0,1,5.4532-10.26074,11.9436,11.9436,0,0,0,2.01749-3.74536,22.20578,22.20578,0,0,1,5.88442-8.90156c.25121-.22587.52681-.42467.74472-.59894.44983,2.9218.89139,5.78984,1.33295,8.65788l.508-.06088c-.13711-1.71245-.22235-3.431-.42156-5.13618-.49468-4.23467.09237-8.16689,2.75939-11.67929,1.677-2.20857,3.65307-3.40957,6.48734-2.724a1.83873,1.83873,0,0,0,.23578.04141c2.22594.23819,2.25145.25016,1.2446,2.36019a12.06827,12.06827,0,0,0-.96259,6.70049l.31349.12864c.20021-.42018.41851-.83283.59754-1.26183a58.70345,58.70345,0,0,1,2.45648-5.82054,5.40745,5.40745,0,0,1,6.95889-2.61958,43.906,43.906,0,0,1,5.13983,2.26187c1.05357.51331.97352.91339.12212,1.78428-1.212,1.2398-2.31436,2.5866-3.46337,3.88787q-.048.22412-.09634.44788l.30407-.24535a16.157,16.157,0,0,1,9.6625-3.70161c3.62438-.26409,6.40681,1.60866,8.7951,4.13085a15.9766,15.9766,0,0,1,1.40482,1.78639c.827,1.1702.58747,1.43914-.77508,1.75682-2.07927.48478-4.10439,1.20342-6.14666,1.84141a1.31811,1.31811,0,0,0-.42673.29335c2.04665-.23643,4.19965-.63871,6.36266-.70229a9.57751,9.57751,0,0,1,9.40394,5.42419,42.64622,42.64622,0,0,1,2.44506,6.95687c.32408,1.06564-.22141,1.37375-1.35807,1.06061-1.98438-.54668-3.9893-1.01927-5.9888-1.50995a.65908.65908,0,0,0-.58057.19863,19.647,19.647,0,0,1,2.32607.7896,29.9045,29.9045,0,0,1,4.95583,2.58886c3.805,2.81113,4.40792,6.89733,4.00791,11.26774-.07608.83123-.23069,1.65712-.38345,2.47911-.30527,1.64282-.92809,1.8-2.25369.821-1.49506-1.10419-3.11174-2.044-4.67565-3.05518q-.19687-.07021-.39356-.14071l-.03482.10679Zm-52.48081,24.59693.20315.10971-.17109-.139-.19942-.279-.24984-.15946c.02856.11023.05713.22045.08637.32835C112.12779,167.05887,112.23751,167.10582,112.34889,167.15135Zm-15.54542-5.07359.20966.86963.25215-.23682ZM55.38252,151.089l-.04118.08444.07256.00416Zm94.79372-34.62767.04993-.06091-.08757-.00829ZM54.90664,162.367l-.09993.07415c.0278.02678.05435.073.08376.07487s.06165-.04055.09265-.06357Zm.54316.32656c-.02444-.023-.04776-.06255-.07364-.06432s-.0544.03425-.08176.05368c.02445.023.04777.0625.07368.06427S55.42245,162.713,55.4498,162.6936Zm40.52092,15.52563-.05243.06523.08412.01225Z"/>
      <path class="cls-1" d="M6.991,53.08857A53.08433,53.08433,0,0,1,3.82961,48.315a9.4558,9.4558,0,0,1,.04331-9.3059,49.06652,49.06652,0,0,1,4.05469-5.74233,1.55027,1.55027,0,0,1,1.29506-.54148c.29961.08019.55341.76619.61722,1.21351a8.38747,8.38747,0,0,0,2.04441,4.47185,23.55313,23.55313,0,0,0-.58884-2.28467c-1.42627-3.92812-.26933-7.3201,2.25554-10.33653a13.654,13.654,0,0,1,9.09981-4.79953c1.33659-.167,1.616.17064,1.19193,1.44777a15.74662,15.74662,0,0,0-.79729,7.09869,44.90251,44.90251,0,0,0,1.62027-4.88392c1.25643-5.87764,5.12338-8.86313,10.75251-9.97306a16.53623,16.53623,0,0,1,8.29684.17929,5.77923,5.77923,0,0,1,3.71351,2.80538,14.23078,14.23078,0,0,1,.59548,1.756,9.50067,9.50067,0,0,0-9.71727,4.894l.26509.4741c.64752-.40158,1.28234-.82559,1.94507-1.20031a27.7881,27.7881,0,0,1,4.91253-2.65471,10.92211,10.92211,0,0,1,8.66766,1.20593,21.44238,21.44238,0,0,1,6.95875,6.13105,4.24939,4.24939,0,0,1,.40776,1.41646,7.69549,7.69549,0,0,1-1.28085.32166c-1.51245.121-3.0288.19324-4.54389.28315,1.81988.37282,3.6683.64443,5.45476,1.13929,5.3851,1.49172,8.63824,5.34873,10.96453,10.156.45956.94967-.00273,1.41722-1.19922,1.28217-1.32305-.14933-2.64169-.33759-3.96224-.50889l-.06856.31577c.551.16083,1.09782.33792,1.65361.48,6.45685,1.65079,10.24779,6.00394,12.24961,12.12889a1.997,1.997,0,0,1-.252,1.50864c-.12371.19169-.85022.07051-1.27747-.02556-.73537-.16534-1.44223-.45528-2.17609-.62986a4.73527,4.73527,0,0,0-1.9415-.08232c.6763.25289,1.36422.47875,2.02709.7629,5.86917,2.51588,8.88458,7.03472,9.34024,13.33652a15.70446,15.70446,0,0,1,.09032,2.38716,1.45087,1.45087,0,0,1-.64494,1.00855c-.20292.11117-.68849-.18239-.99043-.381-1.29533-.852-2.56955-1.736-3.85148-2.6082q-.1621-.05145-.32414-.10312l-.41279-.2345-.08667.14074q.16813.13372.33638.26725.15337.08216.30657.16467a67.40521,67.40521,0,0,1,4.22,5.30428,8.2566,8.2566,0,0,1,.8968,6.58262,15.44748,15.44748,0,0,1-3.60857,6.80222c-1.78245,1.99362-4.344,2.39845-6.82616,2.83955-.26265.04667-.8291-.25949-.83763-.4236a1.51234,1.51234,0,0,1,.41655-1.00458,7.29507,7.29507,0,0,0,1.97135-6.15188,8.44578,8.44578,0,0,1-.49265,1.13456,21.88473,21.88473,0,0,1-2.44871,3.77991c-2.34536,2.46168-6.07975,2.65828-9.65281.77141-3.64163-1.92308-5.15044-5.28123-6.11245-9.01048a14.12344,14.12344,0,0,1-.40825-1.99032,1.54842,1.54842,0,0,1,.23877-1.07211c.11868-.14044.65534-.00183.96941.1084,1.71085.60042,3.411,1.23111,5.11492,1.8514l.14131-.35328c-1.0761-.64339-2.17584-1.25072-3.2242-1.93645-4.42346-2.89334-6.17626-7.0453-5.64472-12.219a30.68466,30.68466,0,0,1,.64248-3.77253c.35488-1.53294.95041-1.72084,2.1355-.71448,1.148.97491,2.24966,2.00437,3.37167,3.00987l.25553-.22078c-.25326-.28855-.50182-.58139-.7605-.865-3.97034-4.35285-5.42654-9.2979-3.54321-15.0268a11.07661,11.07661,0,0,1,.47629-1.22517c.3964-.8494.96171-.92878,1.55563-.22283.77054.91588,1.45729,1.90257,2.23544,2.8115.85544.9992,1.83874,1.89436,2.64255,2.93068a10.83624,10.83624,0,0,1,1.37,2.45493,35.93429,35.93429,0,0,0,1.86231,4.76439,11.37467,11.37467,0,0,1,.981,9.8895,3.41492,3.41492,0,0,0,.25259,2.72619c1.1743,2.47788,2.23917,5.00752,3.34656,7.517,1.89372-.85407,2.35539-1.78844,2.05575-3.722-.45118-2.91121-.71473-5.85487-1.26262-8.746a7.96,7.96,0,0,0-1.53718-3.42152,23.18583,23.18583,0,0,1-4.67665-9.71839A4.49714,4.49714,0,0,0,65.854,52.21287a42.57367,42.57367,0,0,1-7.2684-10.05205,14.72356,14.72356,0,0,0-2.85652-3.321c-1.33146-1.31639-2.75866-2.53814-4.17511-3.76554A5.91844,5.91844,0,0,0,49.996,34.03833c-7.75954-3.19208-15.38126-2.40558-22.89352.87892-1.35018.59033-2.63972,1.3194-3.99131,1.9061a3.57139,3.57139,0,0,0-2.08855,2.46087,13.60519,13.60519,0,0,1-4.09241,6.62117,3.63867,3.63867,0,0,0-1.16365,3.35635,20.71886,20.71886,0,0,1-.98815,9.20658,5.3506,5.3506,0,0,0,.18437,4.05513,21.80835,21.80835,0,0,1,1.9339,9.53269,4.99581,4.99581,0,0,0,1.24042,3.404,21.82887,21.82887,0,0,1,4.50857,9.27577,5.22393,5.22393,0,0,0,2.01133,3.1315,20.03556,20.03556,0,0,1,6.35968,8.68448,4.80114,4.80114,0,0,0,2.39411,2.6748,15.37347,15.37347,0,0,1,5.96482,5.41074,23.08858,23.08858,0,0,0,6.86583,6.4045,23.417,23.417,0,0,1,4.5666,3.97188,14.65886,14.65886,0,0,0,6.729,4.76477,13.446,13.446,0,0,1,5.01069,2.94509,16.36478,16.36478,0,0,0,9.97142,3.88219,3.41938,3.41938,0,0,0,3.14138-1.384,23.5,23.5,0,0,1,8.08-6.43572,8.147,8.147,0,0,0,2.61429-2.49065c.88424-1.1915,1.41623-1.293,2.61058-.36418,1.88181,1.46342,3.8109,2.87561,5.79914,4.18993,1.60427,1.06048,2.02024,1.79229,1.58678,3.68567a13.721,13.721,0,0,1-9.21379,10.3147c-1.55362.5732-1.80809.35151-1.85478-1.251-.06218-2.13377-.18514-4.26576-.282-6.39852l-.40749.01756c.0447.79189.08521,1.58406.13476,2.37564.32054,5.11946-2.9999,10.56728-7.57311,12.23006a13.19341,13.19341,0,0,1-10.23932-.72479,1.67537,1.67537,0,0,1-.83-1.14578c-.03106-.26257.56115-.61519.89588-.90156,1.35071-1.15551,2.71-2.301,4.06608-3.45015l.16832-.23748.09521-.28127-.24561.13348-.29779.18392a18.996,18.996,0,0,1-6.86168,3.24867,10.21528,10.21528,0,0,1-7.58356-1.4048,42.49235,42.49235,0,0,1-4.96738-3.90951c-.97766-.85069-.77237-1.39995.44981-1.8653,1.6216-.61741,3.229-1.27215,4.84244-1.91085l-.13055-.37224c-.97253.26755-1.95029.51751-2.91672.80549-5.45689,1.62607-9.98969.21225-13.63814-4.122-.61671-.73262-1.2706-1.44218-1.81174-2.22807-.69612-1.011-.42382-1.576.77947-1.88591q2.65709-.6843,5.30645-1.39808a1.11407,1.11407,0,0,0,.64878-.52567c-1.59926.27387-3.19367.58088-4.79868.81553-5.25367.76808-9.28955-1.19467-12.22707-5.53575a27.24248,27.24248,0,0,1-1.61054-2.65793c-.55722-1.069-.28964-1.52585.90642-1.70655,1.65523-.25006,3.31414-.47595,4.96872-.7301a1.0195,1.0195,0,0,0,.71772-.50619c-.95268.047-1.908.06375-2.85761.14584-6.16968.53333-10.374-1.79577-13.14921-7.31388-.37556-.74674-.755-1.49631-1.05821-2.27355-.51369-1.31681-.18072-1.75782,1.21926-1.75219,1.98048.008,3.961.002,5.94154.002l.03244-.545c-.50668-.07021-1.01241-.14843-1.52024-.20916-1.62231-.194-3.27012-.26323-4.86321-.59545A10.58651,10.58651,0,0,1,8.768,89.81343a38.56059,38.56059,0,0,1-1.62118-4.613C6.62546,83.45368,7.1447,83.024,8.89919,83.409c1.916.42054,3.8658.68775,5.80087,1.0218l.063-.36085c-1.51922-.42033-3.06305-.7683-4.55327-1.274-5.44468-1.8475-8.098-5.8-8.44844-11.42017A32.06549,32.06549,0,0,1,1.72254,68.144c.05458-1.40828.59813-1.61012,1.83847-.941,1.63752.88332,3.3398,1.64775,5.02408,2.44246a1.06964,1.06964,0,0,0,.86759-.03345c-.51226-.27156-1.02889-.53521-1.53605-.816-3.31625-1.8358-6.29044-4.01721-7.42721-7.87984-1.09513-3.72117-.19866-7.26685,1.17514-10.724.355-.89325.964-.78949,1.75813.026C4.4694,51.293,5.597,52.2894,6.68977,53.31952q.21778.15147.43561.30266.14214.02781.2841.05624l-.144-.21716ZM22.76069,30.0903a1.43491,1.43491,0,0,0,.05961-.20218c.00354-.02322-.034-.05267-.05275-.07928-.0307.041-.08657.08246-.08577.12281C22.68281,29.98279,22.72988,30.033,22.76069,30.0903Zm22.78743,88.94709a1.33365,1.33365,0,0,0-.21217-.056c-.02695-.00277-.05843.03845-.08785.05964.05124.02968.10148.0801.154.08265C45.4463,119.1258,45.49318,119.07219,45.54812,119.03739Z"/>
      <path class="cls-1" d="M215.61649,105.74394H204.97708c-4.39979,0-8.79984-.02491-13.19913.02156a2.08021,2.08021,0,0,1-1.88167-.92892q-13.02042-16.89624-26.09889-33.7478c-1.613-2.07707-3.35472-4.05436-5.251-6.33506v41.22575a9.18978,9.18978,0,0,1-1.779-.723,14.06531,14.06531,0,0,0-10.82987-2.78567.90133.90133,0,0,1-.72222-.15838c-1.32359-1.69339-3.30907-2.32192-5.13137-3.18984a1.48614,1.48614,0,0,1-1.05628-1.56264q.04438-39.502.0261-79.00416c0-.34947.03078-.69894.05023-1.11318H158.4301v40.808c.49713-.46133.77879-.69241,1.02557-.95609q15.394-16.44869,30.78243-32.90264c1.96464-2.10013,3.92091-4.20834,5.90972-6.28538a1.99234,1.99234,0,0,1,1.158-.69958c4.90968-.04748,9.82-.03111,15.03342-.03111L177.71827,55.50725C190.31433,72.2042,202.88908,88.87287,215.61649,105.74394Z"/>
      <path class="cls-2" d="M224.72486,175.517V112.27319H237.289v88.18736c-.36635.02806-.67756.07239-.9888.07265-5.19962.00431-10.39935-.01356-15.59874.02141a1.45989,1.45989,0,0,1-1.47359-.91817q-15.11415-28.17787-30.25662-56.34058c-1.22458-2.27907-2.456-4.55448-3.85442-7.147v64.3032H172.3573c-.02192-.46552-.05929-.89066-.0594-1.31578q-.00481-16.78347.01864-33.56688a4.3896,4.3896,0,0,1,.49333-1.91452c1.67417-3.26309,3.1226-6.59736,2.89481-10.36089a41.11968,41.11968,0,0,0-.77213-4.33355,2.27838,2.27838,0,0,1-.00951-1.23485c1.55788-3.321,1.48253-6.83176,1.17317-10.33941a13.47685,13.47685,0,0,0-2.99892-7.32286,1.02257,1.02257,0,0,1-.26248-.51706c-.2616-5.72154-.50848-11.44377-.76316-17.2946.69932-.03146,1.0844-.06365,1.46949-.06387,5.67958-.00326,11.35928.01371,17.03864-.02076a1.49859,1.49859,0,0,1,1.57322.93322q8.406,16.347,16.86632,32.66611,7.50442,14.52072,15.00687,29.04248c.13973.27025.31657.52136.4761.78139Z"/>
      <path class="cls-2" d="M491.29652,189.31562c.71051,2.33178,1.46907,4.72032,2.13551,7.13423a1.273,1.273,0,0,1-.49881,1.09991,31.73266,31.73266,0,0,1-11.32995,3.6407,18.10919,18.10919,0,0,1-9.18516-1.02256c-4.58926-1.87338-6.74405-5.56242-7.2128-10.31347-.20713-2.09944-.18205-4.22608-.1856-6.3405q-.02548-15.164-.00761-30.328c0-4.5586-2.22815-6.98213-6.79966-7.396a15.24454,15.24454,0,0,0-16.77407,13.03915,36.52262,36.52262,0,0,0-.45153,5.59529c-.04016,11.54768-.02021,23.09558-.02021,34.6434l0,1.479H423.53548V94.92126c1.49746,0,2.96341,0,4.42934,0,1.95973,0,3.91945-.008,5.87915.00178a6.95015,6.95015,0,0,1,7.11873,7.24416q.017,17.68134.00393,35.36271l0,1.49435c.70025-.61161,1.2416-1.11518,1.81453-1.5799a27.709,27.709,0,0,1,14.27144-5.70555,28.02785,28.02785,0,0,1,15.70134,2.08575c6.2654,2.90218,9.768,7.8568,9.86778,14.76276.17206,11.90487.058,23.8138.08408,35.721a12.82231,12.82231,0,0,0,.26912,2.6106,3.12546,3.12546,0,0,0,3.36217,2.79126C487.92272,189.70171,489.50713,189.46734,491.29652,189.31562Z"/>
      <path class="cls-2" d="M289.183,191.54848a49.14241,49.14241,0,0,1-4.018,4.08409c-4.92187,3.99089-10.68653,5.58137-16.95023,5.56546a22.07756,22.07756,0,0,1-10.6186-2.51039,15.44238,15.44238,0,0,1-8.43718-12.95253c-.83144-9.23719,3.61281-15.49471,11.49856-19.44359,4.47671-2.24171,9.3053-3.77793,13.95782-5.67489,2.87833-1.17356,5.79645-2.2848,8.5616-3.68955,2.37824-1.20817,4.08747-3.09283,3.902-6.06982a9.40323,9.40323,0,0,0-8.4215-8.71675,18.1954,18.1954,0,0,0-7.97874,1.13656,1.08522,1.08522,0,0,0-.88594,1.28827,14.18471,14.18471,0,0,1-1.19988,7.35781,9.41819,9.41819,0,0,1-11.39136,4.90163,7.61463,7.61463,0,0,1-5.1784-6.82692c-.34409-5.09972,2.01282-8.92511,5.72054-12.05966,4.86431-4.11227,10.65858-6.04662,16.88865-6.73065a41.96487,41.96487,0,0,1,16.26727,1.23837c7.52956,2.15721,11.83743,7.24656,13.19824,14.85837a35.76607,35.76607,0,0,1,.52506,6.06782c.05323,9.51086.01661,19.02218.03243,28.53329.002,1.23452.07984,2.47291.197,3.7024.227,2.3822,1.42058,3.55739,3.78627,3.608a28.28682,28.28682,0,0,0,3.81311-.28808c.6198-.07127.91969.04385,1.10648.7077.65839,2.33967,1.39626,4.657,2.17307,7.20967-1.4671.67346-2.90288,1.43-4.40815,2.005-4.27146,1.63158-8.65413,2.55582-13.2448,1.64154a10.5557,10.5557,0,0,1-8.60437-7.8783c-.05672-.19131-.12578-.37909-.17839-.57144C289.24739,191.86552,289.21373,191.68525,289.183,191.54848ZM287.05244,166.735c-4.75919,1.96546-9.43421,3.7719-13.98551,5.84905a12.07783,12.07783,0,0,0-3.728,3.10483,7.15457,7.15457,0,0,0-.7043,7.76991,7.2305,7.2305,0,0,0,6.9068,3.395c4.32477-.40338,7.16669-2.87825,9.12635-6.51436C286.91762,176.1649,287.23745,171.61794,287.05244,166.735Z"/>
      <path class="cls-1" d="M236.10843,83.221c6.44447,11.77072,24.75363,14.56429,34.83477,2.31847,2.38114,2.17312,4.75937,4.34357,7.17947,6.55223a29.84115,29.84115,0,0,1-8.58835,8.041c-12.46421,7.52577-25.38081,8.50017-38.422,1.78849-9.40865-4.84217-14.41695-13.06309-15.98739-23.37932a44.02822,44.02822,0,0,1,1.88915-21.6114c3.86367-10.89228,11.55473-17.62231,22.82987-20.008a37.60364,37.60364,0,0,1,29.24689,5.30919c4.7006,3.05572,7.94584,7.289,8.86234,12.95972,1.21248,7.50239-1.49787,13.46057-7.46631,18.01539-4.98657,3.80546-10.76863,5.8403-16.76388,7.35521a96.492,96.492,0,0,1-16.43668,2.53241C236.90016,83.1235,236.51589,83.17659,236.10843,83.221Zm-3.63129-10.29c1.18634,0,2.30349.03045,3.41856-.00513,5.64823-.18021,11.22821-.79768,16.53882-2.88167,3.76606-1.47787,7.03963-3.59567,8.85879-7.40637,3.17341-6.64744-.07145-13.18534-7.295-14.51858a18.56736,18.56736,0,0,0-12.06431,1.92093C233.13217,54.54294,231.23808,65.25833,232.47714,72.931Z"/>
      <path class="cls-1" d="M446.94105,83.23233c6.35836,11.58772,24.3876,14.62013,34.76868,2.27607l7.23751,6.591a34.12253,34.12253,0,0,1-16.40271,11.90238,38.53945,38.53945,0,0,1-25.96313.0934,1.41689,1.41689,0,0,1-1.15327-1.59508c.01714-7.03924-5.04518-12.06-12.08716-12.061q-.18,0-.36,0c-3.16441,0-3.17765.00583-4.479-2.94536-2.931-6.64723-3.48252-13.62441-2.80456-20.75594a35.98091,35.98091,0,0,1,5.95309-17.47057c5.06113-7.30785,12.20274-11.37108,20.86372-12.738a38.51994,38.51994,0,0,1,25.46364,4.47756c5.046,2.83058,8.877,6.79846,10.445,12.54245,2.02626,7.423-.53519,14.59365-6.92394,19.51532-5.033,3.87729-10.87573,5.96329-16.95108,7.49378a96.66978,96.66978,0,0,1-16.43607,2.53348C447.72937,83.1205,447.34954,83.18248,446.94105,83.23233Zm-.324-10.229c5.67879-.29341,11.30408-.85065,16.64713-2.96474,3.84176-1.52008,7.198-3.66911,8.93754-7.63715,2.10419-4.79992,1.36277-12.06182-6.22509-14.0652-6.54791-1.7288-14.617.88267-18.70831,6.27355-3.99642,5.26576-4.71835,11.34849-4.13063,17.69963.02365.25527.537.62885.85248.66223A25.05211,25.05211,0,0,0,446.617,73.00335Z"/>
      <path class="cls-2" d="M342.59993,131.35516h10.57158c.03307.43541.08144.77931.08191,1.12328.00536,3.91562-.02959,7.8317.02593,11.74653.01444,1.019-.31866,1.29009-1.29782,1.26524-2.43791-.06189-4.87846-.02035-7.31795-.02035h-1.44053v55.05491H325.73448V145.48321h-6.38373V131.368h4.16851c2.36408,0,2.29641-.00528,2.4762-2.30366.49119-6.2788,1.55233-12.4295,4.48231-18.10763,3.91892-7.59467,10.21464-11.48057,18.70538-11.9602,5.92131-.33449,11.55085.62954,16.65,3.79314,4.28836,2.66058,7.32621,6.33194,8.21689,11.40719.67758,3.86091.10937,7.488-2.926,10.3669-4.01045,3.80376-11.53333,3.316-14.94091-1.0297-1.91112-2.4373-2.00271-5.21039-1.21087-8.081.42255-1.53183.35681-1.75253-1.15858-2.22948a5.95034,5.95034,0,0,0-5.57185.83066,12.66994,12.66994,0,0,0-5.12359,9.12674C342.77747,125.82042,342.76827,128.50262,342.59993,131.35516Z"/>
      <path class="cls-1" d="M284.89906,93.40928l8.32471-7.78874a25.63983,25.63983,0,0,0,8.83553,6.7522c3.92637,1.81009,7.99239,2.81447,12.3215,1.84043,3.77672-.84976,5.848-3.411,5.57822-6.81465a7.74472,7.74472,0,0,0-2.75889-5.15012c-2.80764-2.57626-6.27211-4.06756-9.58614-5.82035a96.13031,96.13031,0,0,1-10.00764-5.60813A17.82542,17.82542,0,0,1,295.244,43.49163a22.28181,22.28181,0,0,1,12.84586-6.413c9.13593-1.45673,17.74907.02329,25.5505,5.16323a14.47672,14.47672,0,0,1,6.57718,8.66681c1.17686,4.784-.95789,9.42882-5.13108,11.18032-4.44539,1.86573-10.27711.11894-12.73732-3.82635a7.20374,7.20374,0,0,1-.8366-5.9835,1.80454,1.80454,0,0,0-.78554-2.14144c-4.46088-3.6504-11.72332-1.09629-13.21048,4.64906-.87583,3.38355-.35514,5.36127,2.6332,7.20461,3.14188,1.93807,6.54976,3.44375,9.82866,5.16257,3.951,2.07115,7.99585,3.99176,11.7997,6.30629a16.62317,16.62317,0,0,1,7.41023,8.6772,17.15607,17.15607,0,0,1-6.40464,19.21141,29.40412,29.40412,0,0,1-16.61667,5.35748c-9.50367.367-18.211-1.9965-25.73516-7.96719C288.47943,97.18989,286.81736,95.27551,284.89906,93.40928Z"/>
      <path class="cls-2" d="M364.5135,180.43959a25.68525,25.68525,0,0,0,8.78985,6.72615c3.685,1.69452,7.50668,2.73119,11.61226,2.02087,2.6947-.46621,5.04753-1.57907,6.01-4.32426a6.50371,6.50371,0,0,0-2.07047-7.38768,39.83127,39.83127,0,0,0-6.39229-4.38249c-4.33242-2.46915-8.83983-4.63538-13.13894-7.15812a14.91488,14.91488,0,0,1-6.63246-7.21055c-2.74714-6.945-1.45409-13.44734,2.92936-19.2873,3.30522-4.40342,8.1131-6.53614,13.39954-7.48023a35.62092,35.62092,0,0,1,24.31,4.0484,18.0007,18.0007,0,0,1,6.64632,6.09919,10.869,10.869,0,0,1,1.55564,8.70465,9.112,9.112,0,0,1-11.33282,6.573,13.8229,13.8229,0,0,1-3.83347-1.61622,7.53943,7.53943,0,0,1-3.54911-8.65317,1.84748,1.84748,0,0,0-.70084-2.07051c-4.3788-3.8255-11.88334-1.18783-13.32876,4.69828-.82307,3.35187-.19345,5.42291,2.87836,7.239,3.35754,1.985,6.91066,3.65261,10.43666,5.33711,4.544,2.17084,9.06064,4.331,13.06986,7.46956,9.07617,7.10515,7.08973,18.91385.7829,24.8056a25.87167,25.87167,0,0,1-14.15306,6.50216,38.95824,38.95824,0,0,1-27.32953-5.52708,28.9229,28.9229,0,0,1-8.05977-7.50931Z"/>
      <path class="cls-1" d="M120.9267,78.25388a56.49992,56.49992,0,0,1,2.2464,5.50962,10.55884,10.55884,0,0,1-1.58187,9.02154,34.32159,34.32159,0,0,1-2.8308,3.70771c-.89812,1.0377-1.69946.82017-2.25526-.43536-.64335-1.45331-1.32508-2.89-2.01167-4.32361a1.53715,1.53715,0,0,0-.83148-.79356c.38428,1.01371.75376,2.03331,1.15529,3.04015,2.2592,5.665,1.079,10.54351-3.34861,14.68351-.52488.49078-1.044.98969-1.59408,1.45118-1.24409,1.04369-1.95671.77991-2.34263-.78586-.2759-1.11942-.60968-2.22706-.97367-3.32135a3.494,3.494,0,0,0-1.00073-1.52756c.31663,1.31556.6841,2.622.92379,3.95137a5.47489,5.47489,0,0,1-.18475,1.58787c-.49242-.24307-1.19953-.35473-1.44229-.75062a22.08629,22.08629,0,0,0-5.86285-6.25162c-1.132-.834-1.24288-1.5371-.30416-2.61769a49.0393,49.0393,0,0,1,3.84213-3.93052,6.25215,6.25215,0,0,0,1.99408-3.167,23.1756,23.1756,0,0,1,5.1496-9.4802,6.87514,6.87514,0,0,0,1.47246-3.15326A27.25054,27.25054,0,0,1,115.128,69.99658a3.494,3.494,0,0,0,.56981-2.115,27.89979,27.89979,0,0,1,1.09953-11.35233,4.94527,4.94527,0,0,0-.41987-3.21378,17.71048,17.71048,0,0,1-1.75-9.285,4.02607,4.02607,0,0,0-1.20714-3.37955,22.01957,22.01957,0,0,1-4.86646-7.33057,3.29024,3.29024,0,0,0-2.20528-2.02657,24.094,24.094,0,0,1-7.88411-3.92168,3.24884,3.24884,0,0,0-3.40142-.25583A19.48854,19.48854,0,0,1,83.90747,28.287c-.66227-.13446-1.30308-.37121-1.96186-.52668a2.3971,2.3971,0,0,0-3.12905,1.63454,5.20515,5.20515,0,0,0-.30942,1.51464c-.18032,3.65092-1.8185,6.72888-3.79012,9.67076a1.40468,1.40468,0,0,1-.91608.59759c-.20969.01319-.51831-.425-.66591-.7194-1.336-2.66474-2.50031-5.42714-3.99584-7.99779a13.12385,13.12385,0,0,1-.123-13.95894c1.90144-3.39145,5.01114-4.48053,8.58772-4.79187.98-.08531.84011.58147.75907,1.20217a42.83,42.83,0,0,0-.54372,4.61054,18.128,18.128,0,0,0,.52222,3.31377l.40873-.0137c.10164-.39111.22762-.77774.30072-1.17411.31065-1.68444.49291-3.40144.92832-5.05224,1.12271-4.2566,3.6292-5.831,7.93944-5.02686A39.50173,39.50173,0,0,1,92.193,12.70881c1.18874.36357,1.18614.74949.47677,1.80965-.98421,1.4709-1.81854,3.0419-2.7169,4.57014q-.03684.19368-.07391.38719l.262-.21819c1.65231-1.48145,3.133-3.23827,4.98913-4.39264,5.54034-3.4457,11.48593-1.54246,15.72953,3.031.65442.70529.40811,1.20911-.59209,1.5331-1.13266.3669-2.27959.71045-3.36883,1.18268a10.83375,10.83375,0,0,0-1.74381,1.18443l.13045.27388c.41521-.1409.82914-.28571,1.24582-.42212,4.15125-1.359,8.24792-1.6613,12.05621.948,2.9563,2.02556,4.43855,5.056,5.27121,8.42989.26685,1.08119-.19043,1.39282-1.35041,1.2651-2.08626-.22972-4.17989-.39258-6.27045-.58338l-.05326.42025c.96347.15485,1.93081.28912,2.88966.46862a14.28524,14.28524,0,0,1,6.451,2.69565c2.76683,2.20083,3.7542,5.25915,4.10873,8.6048a27.52023,27.52023,0,0,1,.14242,2.98817c-.007,2.06157-.555,2.34051-2.354,1.37685-1.15573-.6191-2.37932-1.11309-3.581-1.644a4.41074,4.41074,0,0,0-.888-.14208c1.24094.85529,2.30342,1.54462,3.32012,2.29581A11.52482,11.52482,0,0,1,131.05613,61.17a35.37394,35.37394,0,0,1-.99813,3.81337c-.46392,1.44933-1.14617,1.536-2.21523.457-.97705-.9861-2.02125-1.90753-3.06291-2.82682a7.112,7.112,0,0,0-1.14434-.65372c1.12548,1.36791,2.18233,2.52589,3.09643,3.78714a11.25742,11.25742,0,0,1,1.11659,11.99042,35.86447,35.86447,0,0,1-1.83657,3.48954c-.9091,1.52757-1.7925,1.43824-2.7049-.1191-.64082-1.09379-1.41293-2.1108-2.12645-3.162q-.25841-.3012-.5168-.60251-.13187-.16227-.26363-.32468l-.13751.08764.2308.38079Zm1.681-31.828a1.5149,1.5149,0,0,0,.2261.07807c.01912.00365.05-.05427.0755-.08391-.05329-.03613-.10479-.09641-.16046-.10053C122.7065,46.31641,122.65888,46.38464,122.60768,46.42591Z"/>
      <path class="cls-2" d="M527.26125,189.47012c.74145,2.4312,1.496,4.82126,2.17272,7.23312a1.172,1.172,0,0,1-.40389,1.04038c-5.82481,2.98262-11.93156,4.616-18.49014,3.21939-5.41324-1.15277-8.70422-5.08977-9.11221-10.62107-.15228-2.06445-.24011-4.13855-.24252-6.20837q-.02891-24.50692-.01072-49.01394v-1.50579h17.59887v50.63887c0,.31957-.00393.63919.00082.95869.054,3.66517,1.74041,5.1561,5.37053,4.72481C525.13207,189.81889,526.11258,189.6437,527.26125,189.47012Z"/>
      <path class="cls-2" d="M79.74565,105.99394a6.09361,6.09361,0,0,0-1.21591,1.00325c-1.20964,1.68467-2.28559,3.468-3.53929,5.11755a13.31176,13.31176,0,0,1-7.26454,4.59966c-1.68545.479-2.621-.30049-2.62949-2.05109-.0097-1.99673-.00225-3.99355-.00225-5.99032l-.2986-.055c-.30018,1.66341-.63367,3.32171-.89048,4.99178-.22418,1.45781-.32467,2.935-.56163,4.39025a4.04616,4.04616,0,0,1-.64305,1.17043c-.34278-.26414-.80279-.4587-1.00832-.80433-.95336-1.60311-2.53264-2.38731-4.05747-3.25906a23.88915,23.88915,0,0,1-2.4591-1.47918,1.58363,1.58363,0,0,1-.25415-2.59357c2.62626-2.61952,5.24351-5.26109,8.04579-7.68458a12.45551,12.45551,0,0,1,3.87054-1.7419c1.67856-.62106,3.43893-1.03168,5.09275-1.70717a17.32653,17.32653,0,0,1,13.40606-.039,29.77175,29.77175,0,0,0,5.40986,1.37134,19.15031,19.15031,0,0,1,12.12927,7.29048,32.07421,32.07421,0,0,0,3.67307,3.93056c2.11533,1.9504,2.69222,4.15565,1.51941,6.79717-.14562.328-.268.6664-.41746.99253-.98224,2.14357-1.22322,2.28048-3.46156,1.57439-3.22849-1.01844-6.52647-1.889-9.62592-3.21637a22.31015,22.31015,0,0,1-4.92955-3.54227c-.96193-.785-.83112-1.43564.24583-2.04586,1.52151-.86211,3.069-1.67853,4.54583-2.70848a3.93618,3.93618,0,0,0-.827.14626,33.87581,33.87581,0,0,0-3.62884,1.546c-3.83426,2.10417-7.78247,2.10221-11.83.81232-1.51313-.48221-1.72621-1.07318-.91705-2.49624.8249-1.45074,1.66972-2.89017,2.50584-4.33455l.05629-.16042Z"/>
      <path class="cls-1" d="M311.3953,219.89249c6.67061.23886,13.25749.35211,19.82558.7641a11.70849,11.70849,0,0,1,8.07179,3.7407c4.51183,4.88766,3.58787,14.80894-1.83006,18.49925a54.84859,54.84859,0,0,1-5.45605,2.88856c3.181,1.59812,6.46773,2.9728,8.28566,6.24869a23.21651,23.21651,0,0,1,2.518,10.20578h-5.05579c-.44277-2.11506-.71368-4.26074-1.3505-6.29192-1.94417-6.201-6.9032-9.77607-13.48137-9.88481-1.74987-.02892-3.5006-.00439-5.34633-.00439v16.20793H311.3953Zm6.19911,23.96281c2.66124,0,5.25026.014,7.8389-.01052a10.69228,10.69228,0,0,0,1.77879-.22464c5.00616-.90316,8.19082-4.60939,8.55364-9.94014a9.79668,9.79668,0,0,0-7.10031-10.50093c-3.61532-1.185-7.33119-.63729-11.071-.77913Z"/>
      <path class="cls-1" d="M393.89616,241.46472A21.42717,21.42717,0,1,1,372.52347,220.118,21.21151,21.21151,0,0,1,393.89616,241.46472Zm-6.03487.06606c-.13658-5.37053-1.59832-10.31226-5.25814-14.46942a12.856,12.856,0,0,0-19.53088-.37474c-7.05566,7.61253-7.47507,20.58581-.9266,28.66234,5.71822,7.05253,14.74547,7.23913,20.69827.37832C386.35171,251.68445,387.7052,246.83935,387.86129,241.53078Z"/>
      <path class="cls-1" d="M403.75781,220.13637c5.02175,0,9.97336-.09485,14.91888.03814a41.528,41.528,0,0,1,7.94792.87c5.76776,1.29567,8.66431,4.94475,8.99367,10.83245.42173,7.53891-3.385,12.38537-11.1288,13.59574a95.88447,95.88447,0,0,1-10.74208.57814c-1.23065.05184-2.4653.00826-3.88.00826v16.24162h-6.10957Zm6.19359,2.12v21.59181c3.11822,0,6.1575.11165,9.18569-.02368,5.96056-.26641,9.81257-4.31026,10.13973-10.46375a9.7404,9.7404,0,0,0-8.80857-10.56361C417.04678,222.32213,413.54545,222.42122,409.9514,222.25641Z"/>
      <path class="cls-1" d="M296.69267,220.18044h3.32657v1.23124c0,9.02714.02953,18.05448-.028,27.08126a21.671,21.671,0,0,1-.61737,4.72521,10.98416,10.98416,0,0,1-8.19117,8.53033,25.97125,25.97125,0,0,1-15.68488-.376,12.85692,12.85692,0,0,1-9.22406-12.635c-.08994-9.34581-.02323-18.69313-.02077-28.03982.00006-.15209.029-.30418.05056-.51522h6.11564c0,.44522-.00035.87061.00006,1.296.00914,8.94689-.06879,17.895.05633,26.84026.09267,6.6263,4.074,10.475,10.736,10.57251a24.20421,24.20421,0,0,0,5.46779-.50155c5.27084-1.1492,7.99618-4.69927,8.0081-10.24026.01907-8.86735.00513-17.73474.00516-26.60211Z"/>
      <path class="cls-1" d="M473.38257,222.71325H451.1073v15.7841h17.544V240.696H451.07718v19.14118h22.31708v2.43675H444.8714V220.29445h28.51117Z"/>
      <path class="cls-1" d="M234.71306,222.73248v15.76709h17.5557v2.21113H234.745v19.11314h22.2876v2.45285H228.61149V220.27987h28.399v2.45261Z"/>
      <path class="cls-2" d="M510.06533,101.87474a10.80409,10.80409,0,1,1-10.932,10.76707A10.68407,10.68407,0,0,1,510.06533,101.87474Z"/>
      <path class="cls-2" d="M97.2666,123.19959c.04722-1.843.2154-2.08483,1.61409-1.85,2.0009.336,3.9946.76279,5.95158,1.29645,1.50749.4111,1.70053,1.26615.76782,2.49795q-1.87714,2.4791-3.72731,4.97853c-.73028.9846-1.61152,1.09169-2.21425.13338A19.30991,19.30991,0,0,1,97.2666,123.19959Z"/>
    </g>
  </g>
</svg>
