<svg xmlns="http://www.w3.org/2000/svg" viewBox="0 0 548.39941 230.10034">
  <defs>
    <style>
      .cls-1 {
        fill: #fff;
      }

      .cls-2 {
        fill: #15b4bc;
      }
    </style>
  </defs>
  <g id="Layer_2" data-name="Layer 2">
    <g id="Layer_1-2" data-name="Layer 1">
      <path class="cls-1" d="M253.46318,94.68261h1.516A21.20438,21.20438,0,0,0,271.65261,86.724l7.2,6.56848c-6.94717,9.34758-18.31649,14.14843-29.55876,14.14843-17.05336,0-33.85385-11.11645-33.85385-34.23255,0-25.89644,16.92754-36.00141,33.09648-36.00141,13.89556,0,30.44318,7.45291,30.44318,22.35872,0,20.4628-31.32762,24.12635-42.317,24.75791A21.13362,21.13362,0,0,0,253.46318,94.68261Zm-20.464-22.48577V73.587a.94851.94851,0,0,1,.12582.63156c24.2534,0,30.0645-8.21152,30.0645-15.41155,0-6.56848-4.79961-9.8521-11.36932-9.8521-8.33611,0-19.45256,5.1783-18.94805,22.61036A1.1331,1.1331,0,0,0,232.99914,72.19684Z"/>
      <path class="cls-1" d="M332.02954,63.98655c-4.548,0-9.97915-3.1578-9.97915-8.46315a12.759,12.759,0,0,1,.50451-3.159,7.25939,7.25939,0,0,0-5.93691-2.77788c-4.168,0-8.716,2.90493-8.716,9.22054.12705,9.09471,32.84361,11.11645,32.84361,29.18006v.25287c0,13.01113-12.37957,19.70543-25.64357,19.70543-10.86358,0-22.48454-4.42092-29.17883-13.51564l8.08446-7.58c4.79961,5.8111,12.1267,8.9689,17.93656,8.9689,5.05249,0,8.9689-2.39919,8.84308-6.82135-.25287-11.99965-29.93867-11.99965-29.93867-29.93744l.127-.12582h-.127c0-15.03286,11.748-21.22265,24.00176-21.22265,13.13695,0,26.90546,7.20127,26.39972,17.43205A9.00237,9.00237,0,0,1,332.02954,63.98655Z"/>
      <path class="cls-2" d="M316.436,198.04882a29.75463,29.75463,0,0,1-14.14844,4.04223c-5.80986,0-10.99063-2.52624-12.37957-9.72627-3.91518,6.56847-12.50539,10.105-20.58985,10.105-9.97915,0-19.45256-5.30535-19.45256-17.43205,0-24.2534,38.02191-20.464,38.02191-32.33787,0-4.92666-3.66354-9.4734-10.105-9.4734a19.37209,19.37209,0,0,0-7.32709,1.64181,17.855,17.855,0,0,1,.12582,2.52624c0,7.4529-5.05249,11.11645-9.72751,11.11645-4.16682,0-8.08447-2.77911-8.08447-8.33734,0-9.60046,12.00211-17.9378,26.90793-17.9378,15.40908,0,25.76815,5.05249,25.76815,23.1161v29.43294c0,4.42092,1.26313,5.81109,4.42093,5.81109a20.28628,20.28628,0,0,0,4.16928-.50574Zm-28.54851-30.0645c-6.56971,3.28486-19.32673,4.92667-19.32673,13.38982,0,4.29511,3.28362,6.82135,7.1988,6.82135,5.55822,0,12.12793-5.17953,12.12793-17.68492Z"/>
      <path class="cls-2" d="M351.92671,100.15079c14.52589,0,23.36774,8.9689,23.1161,18.18943-.25164,6.44266-4.80085,9.98038-9.97915,9.98038-4.42092,0-9.72751-2.65329-9.72751-8.59021a12.45568,12.45568,0,0,1,.88566-4.42092,5.62357,5.62357,0,0,0-3.66354-1.26312,5.43715,5.43715,0,0,0-3.78936,1.38894c-4.42092,3.1578-5.30659,8.59021-5.30659,14.52712v2.65206h10.48489v14.02138h-9.97915v55.20233H326.536V146.63585h-6.44142V132.61447H326.536v-.12581h.12582C327.54749,114.92955,333.48317,100.15079,351.92671,100.15079Z"/>
      <path class="cls-2" d="M403.33474,158.88961c-4.54674,0-9.97915-3.1578-9.97915-8.46316a12.75843,12.75843,0,0,1,.50575-3.159,7.26037,7.26037,0,0,0-5.93569-2.77788c-4.16928,0-8.716,2.90493-8.716,9.22053.12582,9.09472,32.84114,11.11645,32.84114,29.18007v.25287c0,13.01113-12.37711,19.70542-25.64234,19.70542-10.86235,0-22.48454-4.42092-29.18007-13.51564l8.08447-7.58c4.80085,5.8111,12.12793,8.9689,17.9378,8.9689,5.05248,0,8.97013-2.39919,8.84184-6.82134-.25163-11.99965-29.93744-11.99965-29.93744-29.93745l.12582-.12582H362.155c0-15.03286,11.748-21.22265,24.00176-21.22265,13.137,0,26.90546,7.20127,26.39972,17.43206A9.00192,9.00192,0,0,1,403.33474,158.88961Z"/>
      <path class="cls-2" d="M494.40773,198.42751a30.99516,30.99516,0,0,1-14.65171,4.168c-7.32709,0-13.8968-3.53649-13.8968-13.89433V152.95269c0-3.78936-3.91518-6.064-8.59021-6.064-6.94716,0-15.53737,5.05371-15.53737,17.812v37.13748H424.29959V96.10855h10.33618a7.09587,7.09587,0,0,1,7.09587,7.09588V140.4473c4.675-5.05371,12.63368-7.70577,20.33822-7.70577,10.86481,0,21.34724,5.43117,21.34724,17.93656v34.61247c0,4.2951,1.26312,5.80986,4.16928,5.80986a22.9342,22.9342,0,0,0,4.42092-.63156Z"/>
      <path class="cls-2" d="M499.961,113.9193a10.79961,10.79961,0,1,1,10.86234,10.73776A10.78219,10.78219,0,0,1,499.961,113.9193Z"/>
      <path class="cls-2" d="M530.40174,198.68038a31.01149,31.01149,0,0,1-14.77753,4.04223c-6.94717,0-13.13695-3.1578-13.51687-12.63244h-.12582V134.762h17.55787v52.42321c.37992,3.032,1.643,4.168,4.16929,4.168a20.73057,20.73057,0,0,0,4.2951-.63156Z"/>
      <path class="cls-1" d="M443.812,72.19684V73.587a.94839.94839,0,0,1,.12586.63159c24.25335,0,30.06445-8.21155,30.06445-15.41156,0-6.56848-4.79956-9.85211-11.36926-9.85211-8.33612,0-19.45258,5.17828-18.94806,22.61035A1.1335,1.1335,0,0,0,443.812,72.19684Z"/>
      <path class="cls-1" d="M465.79205,94.68262h-1.516a21.13367,21.13367,0,0,1-16.80047-10.35907c10.98938-.63159,42.317-4.29511,42.317-24.75794,0-14.90582-16.5476-22.3587-30.44317-22.3587-16.16895,0-33.0965,10.105-33.0965,36.0014,0,9.17408,2.65247,16.45093,6.91046,21.90021H434.723a7.99526,7.99526,0,0,1,7.00726,4.20319c.02723.04944.04932.10186.07551.15191.085.16492.1701.32965.24426.50183a8.04691,8.04691,0,0,1,.67938,3.19471,36.46875,36.46875,0,0,0,17.37744,4.2807c11.24225,0,22.61157-4.80085,29.55872-14.14844l-7.2-6.56848A21.20448,21.20448,0,0,1,465.79205,94.68262ZM443.812,73.587V72.19684a1.1335,1.1335,0,0,1-.127-.63159c-.50452-17.43207,10.61194-22.61035,18.94806-22.61035,6.5697,0,11.36926,3.28363,11.36926,9.85211,0,7.2-5.8111,15.41156-30.06445,15.41156A.94839.94839,0,0,0,443.812,73.587Z"/>
      <path class="cls-1" d="M535.5141,39.73315c-6.69428,0-13.137,2.90491-16.92627,8.08448V38.7229H501.15576v68.21222c.1731-.22369.36554-.42822.55158-.63922a11.75281,11.75281,0,0,1,9.116-4.24017,11.5676,11.5676,0,0,1,1.21637.0686c.28333.02728.56073.07287.83826.12018.05664.01025.114.01794.17029.029a11.9646,11.9646,0,0,1,5.53955,2.65027V71.31238c0-12.3783,9.09467-17.05213,16.54761-17.05213,3.41064,0,6.44262.88318,8.08447,2.652l5.1795-13.01111A21.21507,21.21507,0,0,0,535.5141,39.73315Z"/>
      <path class="cls-2" d="M238.1225,113.41479H225.48883v64.04413l-33.09528-64.04413H173.06683v20.785a10.1565,10.1565,0,0,1,1.28388,3.45019c.09668.4209.19287.8418.31445,1.25489l.04053.28222-.04688,4.78028a13.82677,13.82677,0,0,0-.33789,1.417,10.6037,10.6037,0,0,1-.72021,2.47559,4.9173,4.9173,0,0,1-.53388.93109v1.18c.03406.06335.073.1214.10614.18573a9.84487,9.84487,0,0,1,.95411,6.26856,23.07794,23.07794,0,0,1-1.06025,4.10723V201.8382h12.75946V137.16241l34.73835,64.67579H238.1225l-.12586-.12586h.12586Z"/>
      <path class="cls-1" d="M178.43329,56.65942l34.61127-38.1477H197.63422l-38.4018,41.05389V18.51172H139.90564V105.1781a11.47633,11.47633,0,0,1,2.90051,1.31006,1.24331,1.24331,0,0,1,.48334.447H144.31a1.21706,1.21706,0,0,0-.07642-.3667,11.7378,11.7378,0,0,1,3.44428-.7514,6.34707,6.34707,0,0,1,1.96582.14013,19.833,19.833,0,0,1,2.92486.978h6.66388V65.75537l5.17951,6.1886,27.03253,34.99115h24.885Z"/>
      <g>
        <path class="cls-1" d="M96.2854,122.032a20.67468,20.67468,0,0,1-7.641-5.303.92038.92038,0,0,0-1.5603.16779,3.9732,3.9732,0,0,0-.51.98981,3.59579,3.59579,0,0,1-2.446,2.35467,19.23532,19.23532,0,0,0-8.91931,7.51544.94783.94783,0,0,1-1.21338.52094,46.16656,46.16656,0,0,0-5.95215-.87817,3.84137,3.84137,0,0,1-3.04492-1.42878,18.91976,18.91976,0,0,0-10.33172-6.04663,1.60065,1.60065,0,0,1-1.33637-.97491,8.45472,8.45472,0,0,0-1.29162-1.9466,19.98478,19.98478,0,0,0-9.18458-6.47894,1.18492,1.18492,0,0,1-.85742-.87781,9.01975,9.01975,0,0,0-1.03149-2.09564,20.23542,20.23542,0,0,0-8.44653-7.592c-.32612-.15271-.62024-.26373-.72718-.733a12.34943,12.34943,0,0,0-.84393-2.52326A20.20518,20.20518,0,0,0,23.899,88.35657a1.16629,1.16629,0,0,1-.67231-.921A19.48257,19.48257,0,0,0,18.13062,76.374c-.67749-.759-1.41944-1.40753-.9162-2.56231a1.56958,1.56958,0,0,0,.02246-.55524,21.00566,21.00566,0,0,0-2.14429-9.94263,3.15748,3.15748,0,0,1-.14532-2.94256,18.71749,18.71749,0,0,0,1.139-10.0857,2.78417,2.78417,0,0,1,.87134-2.79492,20.25053,20.25053,0,0,0,4.98151-8.48474c.14428-.459.22973-.86383.86993-.977a19.76208,19.76208,0,0,0,9.77173-5.07873A5.04389,5.04389,0,0,0,34.033,26.96936a10.88959,10.88959,0,0,0-.91565-2.02905,14.53415,14.53415,0,0,1-2.01123-6.08991,12.36427,12.36427,0,0,0-.42187-1.73352,2.21759,2.21759,0,0,0-.32734-.70361.733.733,0,0,0-1.368.20093,16.84841,16.84841,0,0,1-2.54315,5.18255,18.49482,18.49482,0,0,0-2.75336,8.74066c-.12042,1.51893-.376,3.02729-.58337,4.53864-.01727.12585-.13355.23816-.20386.35675a1.49905,1.49905,0,0,1-.09265-.38977c.0755-2.04736.14459-4.09509.24646-6.14117a11.36658,11.36658,0,0,1,1.80371-6.23627c.25482-.35956.21069-.54938-.2406-.55036a12.19015,12.19015,0,0,0-1.56195.06128,16.19614,16.19614,0,0,0-8.26105,3.66339,9.457,9.457,0,0,0-3.40472,4.84827,12.20106,12.20106,0,0,0,.34918,7.24964c.49542,1.51409,1.1604,2.97271,1.74933,4.45623l.07654.46283-.2677-.2937c-.84656-1.64868-1.75611-3.26916-2.51282-4.95813a12.368,12.368,0,0,1-.66553-2.68805,10.16564,10.16564,0,0,1-.08429-1.42468,9.05255,9.05255,0,0,0-1.54522.77332A16.74647,16.74647,0,0,0,3.26611,41.6153a9.33334,9.33334,0,0,0,.55982,8.36053A10.87686,10.87686,0,0,0,5.348,52.163c1.28632,1.38892,2.65937,2.69739,3.997,4.03882l.32892.30921.2301.21985.108.44879-.287-.285-.20343-.16619L9.11176,56.405C6.772,54.75171,4.398,53.1311,3.12225,50.41541c-.15869-.33783-.31927-.38978-.54528-.07837a5.94051,5.94051,0,0,0-.43567.64556,16.08763,16.08763,0,0,0-1.702,4.80945C.311,56.49921.14746,57.19989,0,57.90356v2.911a1.59133,1.59133,0,0,1,.21948.45788,8.90517,8.90517,0,0,0,2.34168,4.94745,15.473,15.473,0,0,0,4.82232,3.526c1.35614.67261,2.72583,1.31793,4.08948,1.9754l.342.20093-.50213-.01276c-1.9715-.769-3.96173-1.4945-5.905-2.3294a11.8526,11.8526,0,0,1-2.04248-1.34552,9.67364,9.67364,0,0,1-.81427-.71845c-.152.37744-.31629.75055-.45038,1.13422a3.12,3.12,0,0,0-.08789.55029,18.04165,18.04165,0,0,0,1.3717,9.71594A7.28027,7.28027,0,0,0,5.185,81.44006a14.06138,14.06138,0,0,0,7.19531,3.32648c1.89453.39014,3.79852.73444,5.697,1.10614a1.99287,1.99287,0,0,1,.39154.16742,1.46131,1.46131,0,0,1-.42694.08173c-2.36609-.27405-4.73791-.51227-7.09265-.86426a11.14491,11.14491,0,0,1-2.644-.83026c-1.0962-.46436-1.14991-.467-1.10706.72174.00671.18591.02679.37182.0498.55658a18.17456,18.17456,0,0,0,3.68494,8.97961,7.207,7.207,0,0,0,1.61127,1.51911,10.086,10.086,0,0,0,4.6427,1.781c1.55139.16834,3.11133.27948,4.67053.34821,1.7121.07544,3.42767.07007,5.14154.10968a4.70175,4.70175,0,0,1,.65473.10528,4.11378,4.11378,0,0,1-.60706.13019c-2.08051.135-4.16095.27112-6.24268.38477a12.48023,12.48023,0,0,1-4.21356-.31507c-1.13171-.32861-1.13672-.32007-.92468.8606a6.36714,6.36714,0,0,0,.16632.64667,19.79623,19.79623,0,0,0,3.69428,6.6969,9.2921,9.2921,0,0,0,7.83721,3.54205c2.18848-.02112,4.37391-.34015,6.56122-.5199.62915-.0517,1.25983-.08807,1.89044-.115a.943.943,0,0,1,.32276.11554,1.78792,1.78792,0,0,1-.29364.11554c-1.60358.32886-3.20673.66034-4.81281.97656a10.91461,10.91461,0,0,1-4.648.195c-.46136-.10761-.53192.134-.42871.4823a9.828,9.828,0,0,0,.51166,1.469,18.90268,18.90268,0,0,0,4.90814,6.298,7.83427,7.83427,0,0,0,2.759,1.64612,11.17727,11.17727,0,0,0,5.1872.42926c2.08722-.35669,4.15167-.84644,6.22662-1.27539.32556-.06733.653-.13349.98285-.16895a1.3268,1.3268,0,0,1,.40808.08844,1.88243,1.88243,0,0,1-.36279.21753c-1.69427.55676-3.378,1.15185-5.093,1.636a11.873,11.873,0,0,1-2.6427.38324c-1.44983.06939-1.46106.03241-.77887,1.33361a11.97348,11.97348,0,0,0,.81635,1.33222,19.52932,19.52932,0,0,0,5.85919,5.4306,7.49994,7.49994,0,0,0,3.38123,1.01636,17.36765,17.36765,0,0,0,7.71838-1.46277c1.18048-.45184,2.35095-.92993,3.53271-1.37823a1.63964,1.63964,0,0,1,.53046-.01459c-.11078.11688-.2.27936-.33563.34375-1.67847.79693-3.33954,1.63855-5.05646,2.34326a15.55417,15.55417,0,0,1-3.1029.83862c-.91156.16675-.9665.15918-.51105.93653a5.93614,5.93614,0,0,0,.38318.55047,18.63533,18.63533,0,0,0,6.85022,5.43146,9.14907,9.14907,0,0,0,6.526.55188,14.28,14.28,0,0,0,7.57916-4.85266,1.13464,1.13464,0,0,1,.12671-.29584,2.18943,2.18943,0,0,1,.31042-.2666,1.15169,1.15169,0,0,1,.03913.4054,1.30645,1.30645,0,0,1-.23792.35424,10.34652,10.34652,0,0,1-6.2348,5.07117c-.80609.25317-.83685.29938-.22717.84918a9.42077,9.42077,0,0,0,3.68774,2.02124,13.023,13.023,0,0,0,8.52606-.46423c3.24152-1.2243,5.56006-3.36761,6.29114-6.82611a29.85991,29.85991,0,0,0,.46814-5.43237c.04675-1.934-.08923-3.87226-.13739-5.80884a1.84753,1.84753,0,0,1,.08948-.42316,1.76487,1.76487,0,0,1,.12378.3656c.2124,1.92414.44983,3.84625.61505,5.77454a13.89128,13.89128,0,0,1-.09259,4.78113c-.32758,1.24841-.27557,1.29437,1.01422.94488.21552-.05841.43494-.1076.6438-.18469a18.53353,18.53353,0,0,0,7.17822-4.79932,7.74268,7.74268,0,0,0,1.29151-1.67261,11.93463,11.93463,0,0,0,1.15484-6.40228A.81822.81822,0,0,0,96.2854,122.032Z"/>
        <path class="cls-1" d="M129.06946,67.92426c.18475.38671.39764.43859.6131.0838a16.33941,16.33941,0,0,0,1.18933-2.13965,18.36108,18.36108,0,0,0,1.16839-8.77692,7.5696,7.5696,0,0,0-1.51782-3.79486,13.31712,13.31712,0,0,0-4.53772-3.908c-1.697-.91778-3.44232-1.746-5.16644-2.61359a1.15713,1.15713,0,0,1-.20722-.045c-.11419-.04694-.22284-.10742-.3338-.16223a1.15281,1.15281,0,0,1,.29737-.077,2.58315,2.58315,0,0,1,.40667.06421c1.83307.71893,3.68524,1.39386,5.4903,2.17737a13.86158,13.86158,0,0,1,2.16461,1.36237c.3877.26336.73511.586,1.10065.88189.17248-.48846.34662-.97644.51568-1.46612a1.29146,1.29146,0,0,0,.03418-.221,18.059,18.059,0,0,0-1.01788-8.89294,8.45821,8.45821,0,0,0-3.8905-4.71705,17.17552,17.17552,0,0,0-3.588-1.4859,23.8189,23.8189,0,0,0-6.08886-.66186c-.96912-.02966-1.93921-.0235-2.90876-.041a1.36508,1.36508,0,0,1-.31353-.08136,1.15616,1.15616,0,0,1,.33148-.13067c.70685-.04181,1.41461-.06745,2.12207-.09888,3.14734-.13989,6.33331-.66949,9.30365.95013.247.13465.4516.03174.40491-.27911a16.10463,16.10463,0,0,0-.45581-2.62927,17.75525,17.75525,0,0,0-4.09028-6.71918,9.60552,9.60552,0,0,0-9.14721-2.92206,19.15382,19.15382,0,0,0-5.89081,2.30738,6.99877,6.99877,0,0,1-.8952.43414c-.12024.04431-.28736-.03864-.43311-.0636a2.48347,2.48347,0,0,1,.29468-.2569c1.1955-.75586,2.373-1.54364,3.59851-2.24755a7.9084,7.9084,0,0,1,3.47748-1.1186,9.29875,9.29875,0,0,0,1.07489-.18737,5.63757,5.63757,0,0,0-.57166-1.0503,16.059,16.059,0,0,0-9.26678-5.18451,9.0817,9.0817,0,0,0-7.39642,1.63861,12.965,12.965,0,0,0-3.37824,3.54078c-.65283.9942-1.2157,2.04724-1.83551,3.06378-.072.118-.25128.17041-.3808.25323a1.09749,1.09749,0,0,1,.01111-.41772c.69452-1.48059,1.36255-2.97583,2.12134-4.42334A6.47886,6.47886,0,0,1,93.93,15.17023c.546-.3158.3822-.60083-.03662-.77326a18.4046,18.4046,0,0,0-2.72253-.96893A6.575,6.575,0,0,1,87.18829,10.951c-.36108-.48615-.78338-1.184-1.5061-.94556-.72455.23908-.72211,1.0553-.84894,1.70313a14.03275,14.03275,0,0,0,.25928,5.43274,11.51713,11.51713,0,0,1,.26507,2.20233c-.00213,1.003-.16107,2.00451-.20129,3.00873-.0625,1.55926-.1712,3.12481-.093,4.67926.07349,1.46136.50635,1.83355,1.98963,2.02307A21.28832,21.28832,0,0,0,96.2099,28.192a2.45666,2.45666,0,0,1,2.79987.50872,17.38487,17.38487,0,0,0,7.6228,3.7956,2.90933,2.90933,0,0,1,2.42627,2.18048,20.80965,20.80965,0,0,0,5.73248,8.27594,1.24755,1.24755,0,0,1,.46924,1.245,13.41666,13.41666,0,0,0-.16589,2.55268,21.1448,21.1448,0,0,0,2.53686,9.40362.91526.91526,0,0,1,.11108,1.00464,19.11354,19.11354,0,0,0-1.6311,11.10474c.16815,1.37634.44928,2.62073-.87549,3.55914A20.3908,20.3908,0,0,0,111.726,82.842a1.75725,1.75725,0,0,1-.875,1.72064,4.81622,4.81622,0,0,0-1.0647.98212,20.48371,20.48371,0,0,0-5.08,10.51184,1.174,1.174,0,0,1-.56909,1.00452,17.76989,17.76989,0,0,0-5.826,5.91577c-.25983.38476-.25922.58948.19189.852a16.96286,16.96286,0,0,1,6.74079,6.81378c.37036.70428,1.342,1.09216,2.0371,1.62555q-.09732-1.06376-.19543-2.12744a.62649.62649,0,0,0-.02789-.10828q-.93768-3.32794-1.87073-6.65722a1.805,1.805,0,0,1-.01086-.44587c.108.11859.26257.219.31683.35846.728,1.87146,1.48138,3.73468,2.14154,5.63019a11.83233,11.83233,0,0,1,.55243,2.61285c.15393,1.43354.12213,1.45881,1.37854.67713a19.08056,19.08056,0,0,0,5.59625-5.70117,9.05033,9.05033,0,0,0,1.29248-7.57251,47.52408,47.52408,0,0,0-1.70837-5.06275c-.37433-1.009-.87708-1.96991-1.30323-2.96057a3.92721,3.92721,0,0,1-.1632-.71545,3.02576,3.02576,0,0,1,.45166.50964c.80609,1.46777,1.65094,2.91834,2.37024,4.42835a18.23581,18.23581,0,0,1,1.118,3.14154c.29468,1.10522.23291,1.12835,1.16766.45037a8.84251,8.84251,0,0,0,.85846-.71508,19.46057,19.46057,0,0,0,4.65241-6.89173,7.74317,7.74317,0,0,0,.481-4.27185,11.88046,11.88046,0,0,0-.9508-3.30688c-.84925-1.73151-1.90723-3.36072-2.88062-5.03107-.18677-.32049-.39209-.63025-.5769-.95178a.19614.19614,0,0,1,.04516-.182A.2102.2102,0,0,1,120.208,77.34a1.32264,1.32264,0,0,1,.32788.285c1.56134,2.02966,3.3689,3.90784,4.00232,6.51.11572.47552.37494.362.61444.10156a20.04931,20.04931,0,0,0,1.55536-1.75073,17.44152,17.44152,0,0,0,3.12549-7.56268,8.98235,8.98235,0,0,0,.06445-2.43183,11.45131,11.45131,0,0,0-3.19312-6.39435c-1.02764-1.12738-2.17639-2.144-3.25567-3.2254-.09851-.09869-.087-.30725-.12653-.46484.13013.02362.29468.00433.38526.07715C125.70544,64.08954,127.90961,65.49615,129.06946,67.92426Z"/>
        <path class="cls-1" d="M39.00171,14.81622a1.83289,1.83289,0,0,1,.38373.86982,22.14265,22.14265,0,0,0,7.16967,13.532,2.10826,2.10826,0,0,1,.80347,1.14422A12.77331,12.77331,0,0,0,49.378,34.80719a30.22737,30.22737,0,0,0,5.48523,6.01154c.59094.51141,1.4032.85113,1.80853,1.46978a8.312,8.312,0,0,1,.69922,2.31971c.01.03576.02747.06933.04053.1043a27.33475,27.33475,0,0,0,6.26373,10.06989,1.869,1.869,0,0,1,.67963,1.21222A24.41912,24.41912,0,0,0,68.579,67.39209a5.41027,5.41027,0,0,1,1.08826,3.73016,35.5703,35.5703,0,0,0,.60675,9.68042.82783.82783,0,0,1-.44983,1.07923,12.40256,12.40256,0,0,0-1.66486,1.28656c-.19623.15521-.39673.30511-.59527.45746-.05274-.22687-.11737-.45173-.15546-.681-.06091-.36658-.082-.74079-.15832-1.10364a33.7201,33.7201,0,0,0-2.55213-7.4787c-.1557-.32947-.34961-.60657-.08771-1.02448A18.05351,18.05351,0,0,0,66.63129,67.576a2.271,2.271,0,0,0-.25037-1.70191,23.42959,23.42959,0,0,1-2.74445-7.3963,7.84968,7.84968,0,0,0-2.11474-4.4757,24.08884,24.08884,0,0,1-3.9502-6.06543c-.31427-.6211-.33722-.61371-.71911-.01526a19.47718,19.47718,0,0,0-2.61859,6.60339,9.52175,9.52175,0,0,0-.21119,2.76849,9.63267,9.63267,0,0,0,1.568,4.61286c1.11755,1.62085,2.40179,3.12585,3.57684,4.70849.27838.37507.92676.54419.752,1.20618a9.0077,9.0077,0,0,1-1.13208-.814,18.20653,18.20653,0,0,1-3.76318-4.39691c-.18011-.34417-.37439-.6809-.56207-1.02111-.28595.33618-.57343.67108-.85627,1.00976a1.31117,1.31117,0,0,0-.11029.19415,17.65412,17.65412,0,0,0-2.18029,8.4599c-.121,4.41993,2.00238,7.59809,5.79181,9.71234a27.60655,27.60655,0,0,0,2.9483,1.32557c.583.24054,1.20221.39239,1.7984.603.11206.03955.19257.16852.28766.25623a.92157.92157,0,0,1-.32038.07043c-.44036-.07019-.883-.13995-1.31433-.25073-2.50457-.643-4.97131-1.36609-6.719-3.474-.29425-.35486-.37171-.00927-.39728.15174a10.40835,10.40835,0,0,0-.23224,1.99188,15.304,15.304,0,0,0,4.271,10.28143,9.63409,9.63409,0,0,0,4.85254,2.82733A7.62942,7.62942,0,0,0,71.05933,91.053a7.53534,7.53534,0,0,0,.79827-4.22382,1.77235,1.77235,0,0,1,.07032-.41791,1.72555,1.72555,0,0,1,.19677.37153c.75654,3.04559-.57012,7.016-3.95892,8.19152a2.38882,2.38882,0,0,0-.42261.25184,1.45539,1.45539,0,0,0,.3877.21234c.7619.14734,1.52783.27362,2.469.438a25.17676,25.17676,0,0,0,3.232-.69409,12.20481,12.20481,0,0,0,6.9057-6.17993,10.82774,10.82774,0,0,0,1.413-4.55145,9.42214,9.42214,0,0,0-2.62787-7.14356A48.91034,48.91034,0,0,0,75.544,73.905a2.78487,2.78487,0,0,1-.25861-.2865c.14435-.01874.32147-.10083.42773-.04584.62531.32361,1.25257.65033,1.84473,1.02973a10.24983,10.24983,0,0,1,3.52936,3.358c.17682.30273.37079.59546.55688.89276.17615-.31946.36627-.6322.5232-.96082a3.615,3.615,0,0,0,.20489-.63623,17.6426,17.6426,0,0,0,.077-7.75134,10.81741,10.81741,0,0,0-6.62952-8.50561c-1.46258-.64075-2.97485-1.168-4.46515-1.74512-.34637-.13416-.699-.25275-1.04126-.39618-.09063-.038-.15362-.14191-.22931-.21552.12268-.0335.26166-.12274.36566-.09228,1.92432.56329,3.84894,1.12659,5.76172,1.72742a5.79633,5.79633,0,0,1,1.06855.59784q.40713.23409.81311.47039c.05371-.36248.11474-.72418.15661-1.088a1.74554,1.74554,0,0,0-.046-.32977,21.71347,21.71347,0,0,0-2.50592-7.92938,10.11774,10.11774,0,0,0-4.60547-4.55524,16.055,16.055,0,0,0-2.89587-1.14862c-1.86121-.51911-3.75415-.92414-5.63275-1.38153a1.3359,1.3359,0,0,1-.27728-.14106c.09466-.04.19354-.12213.28332-.11315.7768.07745,1.55359.15918,2.32733.26263a18.60549,18.60549,0,0,1,5.09833,1.16248c.29987.13134.60632.24768.90973.37091.00793-.3656.03247-.73194.01685-1.09656a2.71741,2.71741,0,0,0-.13721-.5398,22.58665,22.58665,0,0,0-3.66522-7.47247,10.64667,10.64667,0,0,0-5.45722-3.87842,20.5353,20.5353,0,0,0-5.83612-.84179c-.96515-.04065-1.92773-.14863-2.89-.2414a1.83039,1.83039,0,0,1-.44892-.16833,2.59791,2.59791,0,0,1,.43683-.08014c1.9007-.0279,3.80158-.071,5.70209-.05866a11.395,11.395,0,0,1,1.7619.25415c.4502.07483.897.16956,1.34534.2555-.14124-.48816-.25153-.98816-.43341-1.46064a5.558,5.558,0,0,0-.577-1.0805c-.99432-1.485-2.01275-2.9538-3.01-4.43689a11.4085,11.4085,0,0,0-5.76666-4.40057c-1.85162-.66791-3.75391-1.19477-5.63068-1.79389-.56024-.17889-1.11029-.38995-1.665-.58624a10.81716,10.81716,0,0,1,1.77063.14349c1.80249.44019,3.58978.94293,5.38043,1.43067a6.885,6.885,0,0,1,.717.28106,7.32454,7.32454,0,0,0,.07153-.84222,3.17348,3.17348,0,0,0-.1261-.6554,32.589,32.589,0,0,0-2.443-6.33551,11.93408,11.93408,0,0,0-4.87567-5.23382c-1.215-.71466-2.4997-1.31415-3.77057-1.9292C38.61053,4.34961,35.88806,2.966,34.17493.23877,34.10822.13257,33.95862.07843,33.84766,0A1.89115,1.89115,0,0,0,33.765.414a19.196,19.196,0,0,0,.09375,2.45282A23.98127,23.98127,0,0,0,39.00171,14.81622Z"/>
        <path class="cls-1" d="M69.48193,37.97363a20.31343,20.31343,0,0,1,2.10639,6.43573c.031.2854.07342.56958.11059.85437a8.49784,8.49784,0,0,0,.82489-.53863,5.53174,5.53174,0,0,0,.70478-.71771,23.33806,23.33806,0,0,0,4.3396-7.62287,6.38947,6.38947,0,0,0-.40064-5.2959A33.21925,33.21925,0,0,0,75.416,28.23456a18.68945,18.68945,0,0,1-2.678-5.8551,11.93674,11.93674,0,0,0-1.21906-2.85431A5.17467,5.17467,0,0,0,70.07867,18.008a.836.836,0,0,0-1.407.48577,4.89019,4.89019,0,0,0-.19909,1.6449,10.99857,10.99857,0,0,1-1.27277,5.59882A6.9614,6.9614,0,0,0,66.333,28.9859a20.95858,20.95858,0,0,0,.67883,3.25617C67.739,34.189,68.596,36.09167,69.48193,37.97363Z"/>
        <path class="cls-1" d="M67.36462,35.99384a.70492.70492,0,0,0,.16529.12274l.1004-.26636a6.588,6.588,0,0,0-.28021-.65295,10.13215,10.13215,0,0,1-1.5697-4.71491c-.00507-.31653-.18964-.42425-.41584-.24286q-.99939.80118-1.93548,1.67877c-.07123.06684-.00373.44172.10693.518A15.60922,15.60922,0,0,1,67.36462,35.99384Z"/>
      </g>
      <g>
        <path class="cls-2" d="M131.5722,107.2392A9.35808,9.35808,0,0,1,132.754,112.818c-.11,1.06415-.3252,2.11737-.49292,3.17554l-.2041.04126c.17157.3053.2774.71954.53814.87689.169.10193.59192-.12707.85071-.28857a3.03984,3.03984,0,0,0,.73981-.67432c1.02075-1.2727,2.063-2.53125,3.02154-3.8501,1.476-2.03076,2.97315-4.01422,5.48-4.87329.36243-.1242.27131-.30285.02967-.41967a27.27851,27.27851,0,0,0-3.51575-1.62317c-2.26837-.71894-4.76642-.67109-6.77441-2.27314-.68372-.54541-1.61237-.01764-1.9513.83088a2.05077,2.05077,0,0,0,.18366,1.71313C130.94165,106.0589,131.25,106.65363,131.5722,107.2392Z"/>
        <path class="cls-2" d="M167.4566,145.72986c-.95526-.82349-2.04443-1.49072-3.06494-2.23993a1.74615,1.74615,0,0,1-.30389-.40723c.16852.0166.3714-.02209.50024.05817,1.57868.98309,3.17511,1.94238,4.70288,3.00037a7.34889,7.34889,0,0,1,1.53479,1.60833c.73444.95557.71045.98145,1.23963-.12915a7.40821,7.40821,0,0,0,.46075-1.136,17.36834,17.36834,0,0,0,.08386-9.68561c-.84588-2.96613-2.988-4.82245-5.67761-6.093a31.16646,31.16646,0,0,0-7.38818-2.03894,4.63384,4.63384,0,0,1-.48963-.15283,2.975,2.975,0,0,1,.54749-.0791,24.06328,24.06328,0,0,1,7.21179,1.24,7.69664,7.69664,0,0,1,1.58417.80627c1.06671.69269,1.08563.70087,1.21637-.58734a4.10962,4.10962,0,0,0-.00031-.89435,18.4826,18.4826,0,0,0-3.37579-8.746,9.24415,9.24415,0,0,0-7.62756-3.93194,14.41861,14.41861,0,0,0-4.94367.69531c-.91809.29431-1.82879.61279-2.75274.88708a1.5505,1.5505,0,0,1-.60138-.08246,3.10024,3.10024,0,0,1,.44653-.2984c2.65185-1.18322,5.278-2.4743,8.32556-2.06384.397.05347.59912-.075.37305-.49023a12.17346,12.17346,0,0,0-1.10517-1.93311,16.14762,16.14762,0,0,0-8.96423-5.91217,9.51011,9.51011,0,0,0-3.64069-.01849,12.196,12.196,0,0,0-6.69165,3.99646c-2.33783,2.45367-3.95031,5.52075-6.52417,7.78131-.27807.24414-.08178.366.15827.45093a6.07138,6.07138,0,0,0,1.05017.36084,48.016,48.016,0,0,0,4.95593.67224c1.58887.07733,3.19135-.12281,4.78766-.20508.36554-.0188.69806-.10657.96423.32348a13.61273,13.61273,0,0,0,3.334,3.26764,22.49894,22.49894,0,0,0,5.28589,3.085c.37768.16125.68011.28515.74054.82556a18.91158,18.91158,0,0,0,.59308,2.933,22.16536,22.16536,0,0,0,3.777,7.40589,1.22481,1.22481,0,0,1,.23461,1.32464,13.90829,13.90829,0,0,0-.78021,5.14935,19.34955,19.34955,0,0,0,1.06915,6.90473,1.07485,1.07485,0,0,1-.1336,1.21948,12.58916,12.58916,0,0,0-2.11188,4.03119,20.84633,20.84633,0,0,0-1.3482,7.8678,1.17785,1.17785,0,0,1-.32837,1.10119,20.78764,20.78764,0,0,0-2.48987,2.53962,19.78754,19.78754,0,0,0-4.13489,9.14746,1.3739,1.3739,0,0,1-.56244.71551c-.83075.62378-1.75476,1.136-2.52875,1.82025a20.27023,20.27023,0,0,0-6.07013,8.95386,1.08961,1.08961,0,0,1-.56463.57245,19.36117,19.36117,0,0,0-9.68469,9.02826,2.70169,2.70169,0,0,1-1.72693,1.46857,18.99808,18.99808,0,0,0-9.91413,7.603c-.49652.72644-.92352,1.30658-1.90155,1.17694a2.079,2.079,0,0,0-.75445.16767,19.94141,19.94141,0,0,0-9.6706,5.71014,1.34031,1.34031,0,0,1-1.72918.38892,37.15922,37.15922,0,0,0-5.29737-1.68537,4.07884,4.07884,0,0,1-2.99768-2.15564,18.01115,18.01115,0,0,0-7.70843-6.9248c-1.35693-.66828-2.6778-1.22809-2.87988-2.9577a19.74451,19.74451,0,0,0-7.38739-8.33136,4.17446,4.17446,0,0,1-2.03669-2.62427,18.98733,18.98733,0,0,0-7.11853-10.0141,1.4827,1.4827,0,0,1-.7752-1.35077,4.99582,4.99582,0,0,0-.21289-1.4281,20.35092,20.35092,0,0,0-6.74573-11.16583,5.05655,5.05655,0,0,1-.568-.63983,32.82617,32.82617,0,0,0-3.01318-1.3733c-1.68115-.58068-3.40448-1.04-5.11255-1.54187a15.36732,15.36732,0,0,1-5.188-2.22949c-.70025-.53314-.842-.48071-.98639.369-.01867.10974-.01507.22308-.02325.33466a19.604,19.604,0,0,0,1.14758,8.10778,9.64731,9.64731,0,0,0,6.02063,6.00867,33.70452,33.70452,0,0,0,6.035,1.50629c1.09381.19952,2.18469.41528,3.27508.63263a2.061,2.061,0,0,1,.39209.16571,1.61484,1.61484,0,0,1-.47461.09674c-1.21826-.129-2.43255-.29773-3.65191-.41266-2.18317-.20575-4.37976-.34125-6.36335-1.42328-.38964-.21258-.54846-.1167-.54333.31067a9.59484,9.59484,0,0,0,.03186,1.45123,20.97584,20.97584,0,0,0,2.81372,7.572,9.09175,9.09175,0,0,0,5.20679,3.95014,21.18364,21.18364,0,0,0,5.48181.88592c2.18634.11652,4.36938.29614,6.55353.45294a1.55557,1.55557,0,0,1,.314.09,1.16394,1.16394,0,0,1-.36212.10455c-.77692-.04211-1.55359-.15509-2.3291-.14508-2.08252.02692-4.16437.1402-6.24658.1424a9.6491,9.6491,0,0,1-2.30225-.34216c-1.19293-.29627-1.3067-.22059-1.07391.99713.02081.10864.07733.21008.10272.3183a19.43942,19.43942,0,0,0,3.49554,7.04266,8.99581,8.99581,0,0,0,5.30127,3.45068,22.25754,22.25754,0,0,0,6.88153.31671c1.58771-.10113,3.1745-.21661,4.76252-.31115.11743-.007.24182.10339.36291.15918a1.29275,1.29275,0,0,1-.413.22168c-.66407.07244-1.33246.10431-1.99781.16723-2.75708.26074-5.46893,1.15253-8.28973.54645-.59607-.12811-.72437.06189-.58759.6767a7.83247,7.83247,0,0,0,.31305.9519,19.46729,19.46729,0,0,0,3.48334,5.6759,9.90148,9.90148,0,0,0,8.45007,3.70069,43.14093,43.14093,0,0,0,6.93006-1.02631c.762-.14764,1.535-.24,2.30462-.34533a.801.801,0,0,1,.29248.08178,2.48047,2.48047,0,0,1-.2937.12409c-1.82086.51507-3.63134,1.073-5.46832,1.52234-1.07544.26306-2.19244.35894-3.29272.51593-.52417.07476-1.053.11676-1.57972.17358.17566.55914.34931,1.119.52948,1.6767a1.15245,1.15245,0,0,0,.11927.18853,18.88038,18.88038,0,0,0,4.46344,5.112,9.46752,9.46752,0,0,0,4.2929,2.26227,13.00316,13.00316,0,0,0,6.58942-.53882,15.002,15.002,0,0,0,4.96015-2.925l.29986-.39258.133-.15375-.0517.23962-.23053.43421a9.99965,9.99965,0,0,1-7.02386,4.20642c-.25263.04248-.50855.06506-.76294.09686a4.37438,4.37438,0,0,0,.35089.77033,4.94613,4.94613,0,0,0,.73858.82782,11.06466,11.06466,0,0,0,4.86762,2.5661c.4519.10907.88617.29144,1.32855.44012h2.91c.74579-.15222,1.4928-.29877,2.23719-.45764a9.2602,9.2602,0,0,0,6.36969-4.30963,13.5547,13.5547,0,0,0,1.67529-4.69928c.34338-1.97467.60028-3.96442.90161-5.94653a1.97468,1.97468,0,0,1,.15119-.3974,1.15889,1.15889,0,0,1,.12133.37634c-.09167,1.97156-.1217,3.95019-.32483,5.9107a13.06056,13.06056,0,0,1-.81439,3.10914c-.39978,1.08587-.44067,1.10021.73218,1.01495.11157-.00812.22382-.01459.33405-.03217a19.67133,19.67133,0,0,0,7.53143-2.93554,9.148,9.148,0,0,0,4.03967-5.15052,17.32759,17.32759,0,0,0,.74622-4.832c.03265-2.49975.03064-5,.04968-7.50006a2.10135,2.10135,0,0,1,.092-.42621,2.017,2.017,0,0,1,.10846.40052c.09991,1.59686.14184,3.19915.29785,4.79028a17.43461,17.43461,0,0,1-.17212,6.42755c-.11664.42334-.05.58557.38159.4798a19.55969,19.55969,0,0,0,2.03479-.55634,21.16134,21.16134,0,0,0,5.72541-3.40381,9.50612,9.50612,0,0,0,3.594-7.479,48.70877,48.70877,0,0,0-.79394-9.09247,1.56643,1.56643,0,0,1,.0462-.38959c.1048.11158.2774.209.3042.33692.38068,1.81647.815,3.62634,1.08258,5.4602a23.90536,23.90536,0,0,1,.1947,3.999c-.0216.91607-.12378.92028.77234.64544a8.13914,8.13914,0,0,0,.93543-.3587,18.548,18.548,0,0,0,6.85144-5.43591,6.86431,6.86431,0,0,0,1.01-1.59467,11.21735,11.21735,0,0,0,.64886-6.4646c-.39606-2.18805-.96411-4.34491-1.4505-6.51684a4.75016,4.75016,0,0,1-.0589-.59613c.15668.1726.388.31927.45831.52185.54816,1.57977,1.1142,3.15631,1.57337,4.76281a14.15678,14.15678,0,0,1,.48016,2.84937c.10431,1.43561.10291,1.49322,1.3949.747a17.78815,17.78815,0,0,0,7.14038-7.78931,3.17252,3.17252,0,0,0,.22388-.74359,11.62693,11.62693,0,0,0-.39124-6.48993c-.80377-2.19568-1.75781-4.3363-2.64087-6.50317a5.11748,5.11748,0,0,1-.16168-.57367c.17426.15246.40918.27185.51324.46264.78382,1.43787,1.56788,2.87671,2.30036,4.34107a10.22166,10.22166,0,0,1,1.27972,4.12243c.022.51185.2666.44977.56519.24537a12.278,12.278,0,0,0,1.35449-.97821,18.07655,18.07655,0,0,0,4.60608-6.64368,8.24908,8.24908,0,0,0,.80518-3.55609,12.54844,12.54844,0,0,0-1.97614-6.19965c-.86237-1.346-1.84875-2.61218-2.76593-3.92364a3.47668,3.47668,0,0,1-.28418-.65808,1.95988,1.95988,0,0,1,.60944.31787c1.00708,1.1466,2.03222,2.282,2.96148,3.49023a13.82923,13.82923,0,0,1,1.11121,2.04926c.18384.34961.36035.703.54022,1.05468.33643-.28021.67645-.55639,1.00684-.84362a1.51723,1.51723,0,0,0,.19873-.26868,18.89854,18.89854,0,0,0,3.17126-8.0047,8.88289,8.88289,0,0,0-1.99-7.39752A24.25043,24.25043,0,0,0,167.4566,145.72986Z"/>
        <path class="cls-2" d="M107.24072,127.15375a23.1108,23.1108,0,0,0-6.7348,13.41333,1.59876,1.59876,0,0,1-.3977.85406,15.98207,15.98207,0,0,0-2.82935,3.99616,23.39224,23.39224,0,0,0-2.79352,10.00812,1.66505,1.66505,0,0,1-.26745.91607A18.52962,18.52962,0,0,0,90.911,163.591a15.87655,15.87655,0,0,0-.48224,6.83936,6.06556,6.06556,0,0,1-.38189,3.31689,17.97289,17.97289,0,0,0-.15381,11.39832c.80548,2.72778,2.45672,5.09143,3.1383,7.91742.57874,2.3996,2.51648,4.1112,4.54431,5.49493,3.48346,2.377,7.14576,2.56812,10.57825.46491a13.63221,13.63221,0,0,0,4.45746-4.76618,7.22357,7.22357,0,0,1,.83154-1.005,26.35242,26.35242,0,0,0,2.72376-3.08594,17.62473,17.62473,0,0,0,2.75848-13.29962,1.56125,1.56125,0,0,1,.09863-.95892,16.18957,16.18957,0,0,0,1.61762-6.99854,18.8969,18.8969,0,0,0-1.52966-8.48859,1.98887,1.98887,0,0,1-.1883-1.50048,16.26,16.26,0,0,0,.31409-7.62366,19.3351,19.3351,0,0,0-2.61322-7.30225,1.44637,1.44637,0,0,1-.18335-.93457,17.482,17.482,0,0,0-.04932-5.99444,3.407,3.407,0,0,0-.27649-.691c-.13458.16809-.2843.32635-.40142.50586a22.95644,22.95644,0,0,1-3.168,4.18731,1.62509,1.62509,0,0,0-.38843.84912c-.14582.80286-.21167,1.61994-.34632,2.42524a20.46636,20.46636,0,0,1-2.15142,5.95074c-.53168,1.03632-.51673,1.03607.51684,1.65942q1.62543.98027,3.23371,1.98877c.12646.07959.18823.26215.28.397a1.65228,1.65228,0,0,1-.50628-.07245c-1.23346-.61237-2.4715-1.21784-3.68-1.87689-.53394-.2912-.7992-.21473-1.16071.29626-.74811,1.05731-1.61786,2.02783-2.40717,3.05737a1.293,1.293,0,0,0-.25183.779,20.83823,20.83823,0,0,0,.21906,2.21686,9.4645,9.4645,0,0,0,1.4646,4.04657,20.2214,20.2214,0,0,0,3.95569,4.06952c.918.75861,1.86706,1.47974,2.77832,2.24616a2.53317,2.53317,0,0,1,.41443.67547,3.33066,3.33066,0,0,1-.65888-.267c-.73993-.50018-1.48865-.99322-2.18585-1.5495-1.0127-.808-1.99347-1.65716-2.96765-2.51184-.42188-.37-.54261-.37213-.78223.16577a6.90382,6.90382,0,0,0-.2533.73761,27.66522,27.66522,0,0,0-.95153,5.58808,10.74518,10.74518,0,0,0,1.52758,6.924c.91352,1.49091,1.90772,2.93213,2.84791,4.407.41955.65827.81665,1.33325,1.1795,2.024a4.02169,4.02169,0,0,1,.23614.9079c-.18994-.22174-.39941-.42981-.56622-.66773-.534-.76172-1.05322-1.53381-1.57629-2.3031-.83417-1.22693-1.65991-2.45978-2.51276-3.67352a.50137.50137,0,0,0-.48-.10809,1.62278,1.62278,0,0,0-.53229.5639c-1.05414,1.88122-2.105,3.76471-3.11615,5.66913a2.54853,2.54853,0,0,0-.0863.96826,17.72255,17.72255,0,0,0-1.79193-2.07733c-1.37781-1.18811-2.8468-2.27057-4.28211-3.39173-.84954-.66357-1.70929-1.31427-2.55633-1.981a1.08905,1.08905,0,0,1-.19361-.32215,1.52484,1.52484,0,0,1,.429-.01489,1.23157,1.23157,0,0,1,.38831.21436c1.63635,1.15972,3.2835,2.3048,4.89538,3.49774.36853.27276.50134.19555.6236-.15876a4.93057,4.93057,0,0,0,.2417-.85571c.22216-1.46564.53222-2.92859.6076-4.40289a17.02906,17.02906,0,0,0-.1961-4.54242,15.85092,15.85092,0,0,0-1.76508-4.18036c-.98267-1.7464-2.17578-3.37347-3.24951-5.07013a9.132,9.132,0,0,1-.571-1.30023l-.118-.20984.16828.15839c.51654.675,1.0451,1.34112,1.547,2.02679a23.18825,23.18825,0,0,1,3.17688,4.703c.129.31433.34052.22437.50507.02588a5.77147,5.77147,0,0,0,.44824-.63745,23.51562,23.51562,0,0,0,2.60187-6.25543,10.1601,10.1601,0,0,0,.60425-3.94067,17.4736,17.4736,0,0,0-1.353-5.0365c-.69611-1.56263-1.41742-3.11408-2.10962-4.67835-.05981-.13531.0152-.33032.02759-.49756.10522.09925.25067.179.30963.30072,1.01794,2.10053,2.51691,3.96979,3.03564,6.31079.10968.495.3357.50232.63941.13379.18957-.23.40277-.44116.58441-.677a24.381,24.381,0,0,0,3.17426-5.62115,10.91332,10.91332,0,0,0,1.104-5.62537,22.04825,22.04825,0,0,0-.62152-3.27338c-.54712-1.88848-1.21045-3.74322-1.81714-5.61468a2.25143,2.25143,0,0,1-.04919-.47791c.124.11457.30987.20594.36273.34717.8302,2.21893,2.14819,4.25617,2.46136,6.67029.07422.57178.30066.654.702.23236a26.93413,26.93413,0,0,0,1.94372-2.29687,22.6113,22.6113,0,0,0,3.35169-6.028,13.39672,13.39672,0,0,0,.06439-7.47534,26.91527,26.91527,0,0,1-1.02887-7.59711c.064-.88794.15717-1.7738.21985-2.66186a3.66825,3.66825,0,0,0-.06287-.63526,3.28826,3.28826,0,0,0-.58294.26929,9.242,9.242,0,0,0-1.046.83557,22.70941,22.70941,0,0,0-6.58771,11.19031A2.45977,2.45977,0,0,1,107.24072,127.15375Zm6.8183,27.621c-.04687-.0426-.11792-.07733-.12982-.12634-.01178-.04871.03595-.11176.05756-.16858.04913.03613.13067.066.13916.10986C114.13623,154.64362,114.08539,154.70923,114.059,154.77478Zm-10.24579,31.96185-.09161.11243-.07385-.18213Zm-8.9942,5.92664a5.36335,5.36335,0,0,0,8.1626-1.84546,5.5229,5.5229,0,0,0,.88861-3.27808,1.03267,1.03267,0,0,1,.10242-.35534c.09271.108.24463.204.26922.32574a5.71883,5.71883,0,0,1-1.05914,4.63288,4.84408,4.84408,0,0,1-4.35608,2.15612,6.24812,6.24812,0,0,1-4.96576-1.88726,1.25912,1.25912,0,0,1-.16052-.33356c.13983.01068.30841-.0246.41382.04126C94.36462,192.27594,94.57642,192.49261,94.819,192.66327Zm1.10516-31.11652-.05371-.03882a1.02743,1.02743,0,0,1,.06336-.10638c.01806.02551.05145.052.04986.07623S95.9455,161.52386,95.92419,161.54675Z"/>
        <path class="cls-2" d="M56.68073,111.27917c.47155.29462.98773.51777,1.48309.77448a8.6743,8.6743,0,0,1,4.54846,4.97864,1.9414,1.9414,0,0,0,.25043.49792.67507.67507,0,0,0,1.24511-.05823,1.85574,1.85574,0,0,0,.25055-.72906c.08258-.77466.12592-1.55353.18268-2.33093.0921-1.2605.11347-2.53125.29578-3.77851a26.63623,26.63623,0,0,1,.7525-3.01342c.03436-.12787.16858-.22889.25653-.34235a3.44939,3.44939,0,0,1,.07086.4939,1.95471,1.95471,0,0,1-.09155.3197,21.31286,21.31286,0,0,0-.40143,5.86,24.86745,24.86745,0,0,1-.072,4.0116c-.054.81287.00568,1.00122.79462.77045,1.8479-.54047,3.69012-1.11566,5.49457-1.785a6.42851,6.42851,0,0,0,3.30523-2.54376c1.1615-1.81915,2.32087-3.6405,3.52845-5.429.68573-1.01551,1.46093-1.971,2.21124-2.94165.06677-.08637.24719-.08472.37488-.124-.01191.1297.02014.28778-.04248.38465-.70594,1.09271-1.44239,2.16589-2.13849,3.26471-.71619,1.13049-1.34217,2.32238-2.116,3.41027-.389.54694-.18146.71888.265.861,1.27161.4046,2.53931.83514,3.83423,1.14984a9.62508,9.62508,0,0,0,6.02863.009q1.705-.6849,3.37811-1.44879c1.72492-.78772,3.42865-1.622,5.15619-2.40369a7.84448,7.84448,0,0,1,1.38446-.38653.88534.88534,0,0,1,.32477.05114c-.08557.087-.15552.2082-.25922.25562-.77667.3551-1.57428.66675-2.33832,1.04657-1.82891.90906-3.64166,1.85071-5.46392,2.77332-.511.25872-.24183.512-.01239.7713a18.85017,18.85017,0,0,0,8.71179,5.7998c2.91028.87946,5.858,1.63434,8.785,2.45905.43549.12274.61975.05035.82971-.40754.74225-1.61895,1.54969-3.20947,2.37934-4.786a1.08555,1.08555,0,0,0,.03106-1.22882,18.256,18.256,0,0,0-4.96087-5.53332,1.94979,1.94979,0,0,1-.67877-.6814,13.21044,13.21044,0,0,0-4.12952-5.048,16.65876,16.65876,0,0,0-10.05127-3.75244,4.5541,4.5541,0,0,1-3.39911-.97333,1.15507,1.15507,0,0,0-.29315-.15943,15.91668,15.91668,0,0,0-8.07123-1.621,16.51108,16.51108,0,0,0-8.00085,2.458c-.77674.47931-1.48072,1.00952-2.40992.67071-.6416.06311-1.23571.09827-1.82257.18335a15.32871,15.32871,0,0,0-7.59069,3.77326,7.57693,7.57693,0,0,0-2.34137,2.665A1.24347,1.24347,0,0,0,56.68073,111.27917Z"/>
        <polygon class="cls-2" points="59.317 165.606 59.313 165.606 59.32 165.616 59.324 165.618 59.317 165.606"/>
        <path class="cls-2" d="M59.725,165.62109c.41449.28284.605.13349.66211-.30407a5.2949,5.2949,0,0,0,.02838-.67,23.15036,23.15036,0,0,0-1.69263-8.69421,7.8969,7.8969,0,0,0-2.76361-3.70923c-1.372-.95434-2.72888-1.93921-4.16119-2.79559a20.92827,20.92827,0,0,1-5.417-4.42847,23.10951,23.10951,0,0,0-1.77942-1.856c-.69274-.65832-1.0429-.62079-1.45739.19318A12.31654,12.31654,0,0,0,42.327,145.42a17.70307,17.70307,0,0,0-.4184,6.947,8.62006,8.62006,0,0,0,1.50433,4.49079,12.11246,12.11246,0,0,0,5.50647,4.04156c1.9455.7298,3.95063,1.30365,5.8833,2.06378a42.36091,42.36091,0,0,1,4.00013,1.94336c.2304.11994.34753.4574.51428.69965C59.45605,165.60693,59.62988,165.55615,59.725,165.62109Z"/>
        <path class="cls-2" d="M117.9989,126.955c-.00055.06634.24683.217.3067.18664a3.50967,3.50967,0,0,0,.63562-.44452,22.42469,22.42469,0,0,0,4.54023-5.32715,8.28556,8.28556,0,0,0,1.20721-4.23376,15.939,15.939,0,0,0-.97333-5.22821c-.53741-1.77307-1.22375-3.51672-1.0971-5.24359,0-.44171.002-.7027-.00055-.96363-.00275-.28942-.00959-.57885-.01465-.86828a8.70479,8.70479,0,0,0-.76367.58343,5.392,5.392,0,0,0-.65937.75757,28.74765,28.74765,0,0,0-3.82623,7.15259,14.12157,14.12157,0,0,0-.46973,8.53693A19.65063,19.65063,0,0,1,117.9989,126.955Z"/>
        <path class="cls-2" d="M101.80927,132.78772a23.94523,23.94523,0,0,1,4.539-6.32172,5.51309,5.51309,0,0,0,.7962-1.524.68878.68878,0,0,0-.63885-.745c-1.05286-.21442-2.09992-.45752-3.14771-.69617-1.62506-.37011-3.2608-.70178-4.86847-1.13678-.8996-.24346-.88733-.31488-.91516.67139a16.41914,16.41914,0,0,0,1.07623,5.66058,9.97319,9.97319,0,0,0,2.17432,4.21918C101.42126,133.5025,101.43665,133.50769,101.80927,132.78772Z"/>
      </g>
      <path class="cls-1" d="M420.69965,95.5658a22.9196,22.9196,0,0,1-4.421.63153c-2.90491,0-4.168-1.51471-4.168-5.80982V55.775c0-12.50537-10.48487-17.93658-21.34845-17.93658-7.70581,0-15.66321,2.6521-20.337,7.70581V1.20551H352.99316v97.967c.80133.025,1.58039.08282,2.346.15942.12085.01209.24292.02081.3631.03412.72137.0802,1.42285.18683,2.11084.31067.14893.02679.29822.05212.446.081q1.01213.19776,1.97174.45764c.14856.03986.29651.08014.44367.12226q.95892.27411,1.864.60528c.1377.05036.27374.10242.40991.15485q.91115.35073,1.76551.75519c.12219.058.24206.1184.36279.17828q.86.42636,1.65887.90381c.11139.06683.22.13629.33.20483.525.32776,1.0304.67005,1.51154,1.02967.11993.08935.23632.18182.35412.27343.44263.34571.86811.70246,1.27063,1.07337.07178.06561.15265.12225.22345.18878V69.79761c0-12.75824,8.58893-17.812,15.53736-17.812,4.67376,0,8.589,2.27459,8.589,6.064V93.79816c0,10.35785,6.56971,13.89434,13.89557,13.89434A30.99572,30.99572,0,0,0,423.1,103.52441Z"/>
    </g>
  </g>
</svg>
